<svg xmlns="http://www.w3.org/2000/svg" viewBox="0 0 24 24">
	<path d="M 12.378 0 c 2.916 0 3.3408 0.0156 4.5696 0.072 c 1.2768 0.0588 2.1492 0.2616 2.9124 0.558 a 5.8824 5.8824 90 0 1 2.1264 1.3836 a 5.8824 5.8824 90 0 1 1.3836 2.1264 c 0.2964 0.7632 0.4992 1.6356 0.558 2.9124 c 0.0576 1.2804 0.072 1.6884 0.072 4.9476 v 0.096 c 0 3.1716 -0.0144 3.5844 -0.072 4.8516 c -0.0588 1.2768 -0.2616 2.1492 -0.558 2.9124 a 5.8824 5.8824 90 0 1 -1.3836 2.1264 a 5.8824 5.8824 90 0 1 -2.1264 1.3836 c -0.7632 0.2964 -1.6356 0.4992 -2.9124 0.558 c -1.2804 0.0576 -1.6884 0.072 -4.9476 0.072 h -0.096 c -3.1716 0 -3.5844 -0.0144 -4.8516 -0.072 c -1.2768 -0.0588 -2.1492 -0.2616 -2.9124 -0.558 a 5.8824 5.8824 90 0 1 -2.1264 -1.3836 A 5.8824 5.8824 90 0 1 0.63 19.86 c -0.2964 -0.7632 -0.4992 -1.6356 -0.558 -2.9124 c -0.0564 -1.2288 -0.072 -1.6548 -0.072 -4.5696 v -0.756 c 0 -2.916 0.0156 -3.3408 0.072 -4.5696 c 0.0588 -1.2768 0.2616 -2.1492 0.558 -2.9124 a 5.8824 5.8824 90 0 1 1.3836 -2.1264 A 5.8824 5.8824 90 0 1 4.14 0.63 c 0.7632 -0.2964 1.6356 -0.4992 2.9124 -0.558 C 8.2812 0.0156 8.7072 0 11.622 0 h 0.756 z m -0.0972 2.1624 h -0.5616 c -2.9472 0 -3.3408 0.0132 -4.5684 0.0696 c -1.17 0.054 -1.8048 0.2484 -2.2284 0.4128 c -0.5604 0.2184 -0.96 0.4776 -1.38 0.8976 c -0.42 0.42 -0.6792 0.8196 -0.8976 1.38 c -0.1644 0.4236 -0.36 1.0584 -0.4128 2.2284 c -0.0564 1.2276 -0.0696 1.6212 -0.0696 4.5684 v 0.5616 c 0 2.9472 0.0132 3.3408 0.0696 4.5684 c 0.054 1.17 0.2484 1.8048 0.4128 2.2284 c 0.2184 0.5592 0.4788 0.96 0.8976 1.38 c 0.42 0.42 0.8196 0.6792 1.38 0.8976 c 0.4236 0.1644 1.0584 0.36 2.2284 0.4128 c 1.2648 0.0576 1.644 0.0696 4.8492 0.0696 h 0.096 c 3.1164 0 3.5004 -0.012 4.752 -0.0696 c 1.1712 -0.054 1.806 -0.2484 2.2296 -0.4128 c 0.5592 -0.2184 0.96 -0.4776 1.38 -0.8976 c 0.42 -0.42 0.6792 -0.8196 0.8976 -1.38 c 0.1644 -0.4236 0.36 -1.0584 0.4128 -2.2284 c 0.0576 -1.266 0.0696 -1.644 0.0696 -4.8492 v -0.096 c 0 -3.1164 -0.012 -3.5004 -0.0696 -4.752 c -0.054 -1.1712 -0.2484 -1.806 -0.4128 -2.2296 a 3.7164 3.7164 90 0 0 -0.8976 -1.38 a 3.7176 3.7176 90 0 0 -1.38 -0.8976 c -0.4236 -0.1644 -1.0584 -0.36 -2.2284 -0.4128 c -1.2276 -0.0564 -1.6212 -0.0696 -4.5684 -0.0696 z M 12 5.838 a 6.162 6.162 90 1 1 0 12.324 a 6.162 6.162 90 0 1 0 -12.324 z m 0 2.1624 a 3.9996 3.9996 90 1 0 0 7.9992 a 3.9996 3.9996 90 0 0 0 -7.9992 z m 6.4056 -3.846 a 1.44 1.44 90 1 1 0 2.88 a 1.44 1.44 90 0 1 0 -2.88 z" fill="#000000"/>
</svg>