<?xml version="1.0" encoding="UTF-8"?>
<svg id="Layer_1" data-name="Layer 1" xmlns="http://www.w3.org/2000/svg" viewBox="0 0 2239.34 1186.25">
  <defs>
    <style>
      .cls-1 {
        letter-spacing: 0em;
      }

      .cls-2 {
        letter-spacing: 0em;
      }

      .cls-3 {
        letter-spacing: -.07em;
      }

      .cls-4 {
        letter-spacing: -.07em;
      }

      .cls-5 {
        letter-spacing: .02em;
      }

      .cls-6 {
        font-family: MyriadPro-Regular, 'Myriad Pro';
        font-size: 110px;
      }

      .cls-7 {
        fill: #005b9a;
      }
    </style>
  </defs>
  <path class="cls-7" d="M147.05,758.36h61.26s3.9-117.36,113.78-118.64c125.44-1.46,126.42,120.58,126.42,120.58l163.37-.97s-2.43-103.56,71.47-178.93c78.55-80.1,184.28-76.82,184.28-76.82l.97-105.51s-123.22-4.69-235.33,91.9c-108.79,93.72-122.08,179.21-124.11,245.42-2.24,73.02,19.28-153.25-180.27-154.98-176.98-1.53-181.85,177.96-181.85,177.96Z"/>
  <text class="cls-6" transform="translate(1036.03 341.18)"><tspan x="0" y="0">R</tspan><tspan class="cls-5" x="59.18" y="0">E</tspan><tspan x="115.06" y="0">TE I</tspan><tspan class="cls-4" x="273.45" y="0">T</tspan><tspan class="cls-2" x="319.87" y="0">ALIANA DELL3 </tspan><tspan x="0" y="132">ALLI</tspan><tspan class="cls-1" x="197.45" y="132">E</tspan><tspan x="252.55" y="132">V3 DELLE SCUOLE </tspan><tspan x="0" y="264">E DEGLI ISTITUTI DI </tspan><tspan x="0" y="396">STUDI SUPERIORI </tspan><tspan x="0" y="528">UNIVERSI</tspan><tspan class="cls-3" x="425.04" y="528">T</tspan><tspan x="471.45" y="528">ARI</tspan></text>
</svg>