<?xml version="1.0" encoding="UTF-8"?>
<svg id="Layer_1" xmlns="http://www.w3.org/2000/svg" viewBox="0 0 600 287.5">
  <defs>
    <style>
      .cls-1 {
        fill: #5c011a;
      }

      .cls-2 {
        stroke: #7c7b7b;
      }

      .cls-2, .cls-3 {
        fill: none;
        stroke-miterlimit: 10;
        stroke-width: 22.68px;
      }

      .cls-3 {
        stroke: #b90345;
      }
    </style>
  </defs>
  <path class="cls-3" d="M280.5,135.22c0,55.03-45.28,100.31-100.31,100.31s-100.31-45.28-100.31-100.31,45.28-100.31,100.31-100.31c.03,0,.06,0,.09,0"/>
  <path class="cls-2" d="M379.26,135.22c0,55.03-45.28,100.31-100.31,100.31s-100.31-45.28-100.31-100.31,45.28-100.31,100.31-100.31c.03,0,.06,0,.09,0"/>
  <path class="cls-1" d="M206.76,220.07c3.87-1.32,8.65-3.01,13.28-5.38,3.76-1.93,6.57-3.65,9.44-5.59,2.44,1.67,8.4,4.72,11.63,6.37,4.15,2.13,7.76,3.58,11.19,4.7-3.42,2.68-6.98,5.55-11.28,8.3-3.91,2.5-7.84,4.9-11.38,6.75-3.5-1.62-6.62-3.11-13.3-7.49-4.93-3.23-7.17-5.19-9.57-7.65Z"/>
</svg>