<?xml version="1.0" encoding="UTF-8"?>
<svg id="Layer_8" xmlns="http://www.w3.org/2000/svg" viewBox="0 0 512.83 222.24">
  <defs>
    <style>
      .cls-1 {
        stroke-width: 27px;
      }

      .cls-1, .cls-2, .cls-3 {
        fill: none;
        stroke: #005b9a;
        stroke-miterlimit: 10;
      }

      .cls-2 {
        stroke-width: 17px;
      }

      .cls-3 {
        stroke-width: 6px;
      }

      .cls-4, .cls-5 {
        fill: #005b9a;
      }

      .cls-5 {
        font-family: MyriadPro-Regular, 'Myriad Pro';
        font-size: 30px;
      }
    </style>
  </defs>
  <text class="cls-5" transform="translate(229.35 178.34)"><tspan x="0" y="0" xml:space="preserve">UDINE  -  2025</tspan></text>
  <g>
    <g>
      <path class="cls-1" d="M112.13,124.24c0-46,37.29-83.29,83.29-83.29"/>
      <path class="cls-2" d="M89.97,124.11c0-22.5-18.24-40.74-40.74-40.74S8.5,101.61,8.5,124.11"/>
    </g>
    <g>
      <path class="cls-1" d="M94.92,125.45c0,46-37.29,83.29-83.29,83.29"/>
      <path class="cls-2" d="M117.08,125.58c0,22.5,18.24,40.74,40.74,40.74,22.5,0,40.74-18.24,40.74-40.74"/>
    </g>
  </g>
  <g>
    <path class="cls-3" d="M271.92,116.41c-6.15,4.3-13.47,6.61-20.97,6.61-20.07,0-36.58-16.51-36.58-36.58s16.51-36.58,36.58-36.58c7.5,0,14.81,2.3,20.96,6.6"/>
    <circle class="cls-3" cx="414.12" cy="87.82" r="36.58"/>
    <circle class="cls-3" cx="326.36" cy="86.91" r="36.58"/>
    <polyline class="cls-3" points="470.02 50.72 470.02 123.37 512.83 123.37"/>
  </g>
  <g>
    <path class="cls-4" d="M107.76,82.67c-.13.32-.28.64-.38.97-.3.94-.65,1.33-1.49.38-.52-.59-1.13-.46-1.44.33-.42,1.1-.8,2.21-1.22,3.36-.53-.27-.32-.75-.32-1.1,0-1.21-.18-2.39-.53-3.55-.25-.82-.81-1.04-1.52-.61-.76.46-1.46,1.02-2.17,1.55-.76.58-1.45.66-2.11-.16-.24-.3-.54-.55-.85-.78-.79-.59-1.43-.46-1.93.39-.36.6-.53,1.28-.76,1.94-.21.59-.23,1.67-.86,1.59-.69-.09-.34-1.11-.42-1.72-.09-.65-.1-1.31-.16-1.96-.09-.92-.56-.92-1.14-.42-.58.5-1.25.89-1.71,1.55-.6.86-1.43,1.13-2.45.78-.36-.12-.75-.21-1.13-.26-.93-.13-1.5.25-1.59,1.23-.01.15,0,.32-.05.46-.14.33,0,.93-.47.95-.53.02-.59-.54-.6-.96-.02-.97-.06-1.83-1.39-1.02-.3.18-.67.07-.91-.26-.29-.4.11-.55.29-.75,1.83-2.06,3.38-4.25,3.44-7.16,0-.31,0-.62-.03-.93-.09-.81-.5-1.1-1.27-.73-1.3.62-2.42,1.51-2.86,2.9-.54,1.69-2.15,2.52-2.93,4-.16.3-.39.1-.58-.04-.28-.2-.13-.39.01-.58.6-.8,1.22-1.59,1.79-2.42.82-1.2,1.18-2.52.87-3.97-.28-1.3-.93-1.55-2.03-.79q-.67-1.73-2.46-.26c-.86-1.2-.74-2.38-.06-3.64.63-1.15,1.26-2.31,1.55-3.62.12-.54.27-1.15-.4-1.4-.57-.22-.95.21-1.22.65-.28.46-.5.96-.73,1.44-.34.71-.76,1.24-1.59,1.55-2.62.95-3.32,4.86-1.28,6.77.38.35.78.49,1.27.24.21-.11.4-.26.62-.32.53-.17.99-.93,1.5-.59.45.3-.2.88-.2,1.37,0,1.12-.05,2.24-.05,3.36,0,.52-.14.76-.66.44-.66-.41-1.45-.62-1.82-1.43-.18-.39-.59-.66-1.07-.39-.42.23-.73-.06-1.09-.14-.99-.23-1.41-.79-1.32-1.82.05-.61-.02-1.25-.13-1.85-.17-.88-.75-1.03-1.47-.61-.7.41-1.05,1.11-1.33,1.84-.52,1.35-1.37.25-2.01.18-.76-.09-.2-.65-.09-.98.13-.4.37-.76.39-1.2.03-.57-.23-.99-.69-1.26-.48-.29-.97-.19-1.39.18-.2.17-.44.32-.61.52-.43.49-.71.61-1.01-.15-.21-.52-.58-.99-.93-1.45-1.98-2.59-4.28-1.65-5.73.7-.28.46-.5.96-.73,1.45-.19.39-.53.39-.89.34-.44-.06-.45-.4-.42-.7.37-3.15-2.04-4.22-4.12-5.53-.56-.35-.96-.21-1.34.37-.85,1.3-1.35,2.77-2.25,4.38-.07-.91-.09-1.55-.17-2.18-.23-1.64-1.52-2.37-3.06-1.73-1.14.47-1.86,1.36-2.36,2.45-.18.38-.37.75-.62,1.26-.32-.51-.24-.97-.21-1.37.11-1.54-.45-2.8-1.52-3.87-.71-.71-1.43-1.42-2.14-2.13-.76-.76-1.27-.4-1.73.36-.58.98-.63,2.11-.93,3.17-.19.66-.36,1.32-.64,1.97-.18-1-.04-1.98.08-2.96.13-1,.24-2,.14-3.01-.08-.93-.52-1.21-1.41-.85-1.91.78-1.93.76-3.27-.87-.74-.9-1.45-1.82-2.19-2.71-.31-.38-.56-.95-1.15-.84-.65.12-.7.79-.83,1.29-.54,2.15-.69,4.35-.98,6.54-.05.42-.07.85-.3,1.23-.03,0-.07,0-.1,0,.02-.03.07-.06.07-.09-.28-2.73-.07-5.5-.61-8.21-.1-.51-.05-1.18-.7-1.34-.63-.16-.95.43-1.3.82-.38.43-.71.9-1.05,1.36-.53.72-1.01,1.61-1.81,1.93-1.97.79-1.91,2.45-2.16,4.1-.31,2.04-.06,4.13-.68,6.32-.23-2.83-.44-5.48-.65-8.13-.06-.7-.18-1.38-.45-2.03-.13-.32-.35-.52-.71-.49-.38.03-.52.31-.54.65-.06,1.08-.16,2.16-.15,3.25.04,5.71.76,11.35,1.69,16.97.06.34.1.69.13,1.03q.15,1.61-1.54,2.41c-.17-1.19-.31-2.37-.52-3.53-.2-1.14-.45-2.26-1.08-3.28-.46-.74-.4-1.64-.41-2.49-.05-3.6-.11-7.2-.16-10.81-.02-1.16-.08-2.21-1.63-2.42-.7-.09-1.33-.63-1.83-1.18-.69-.75-.5-1.37.48-1.56.46-.09.94-.12,1.31-.42.25-.2.68-.48.37-.84-.65-.76-.11-1.3.26-1.86.64-.98,1.23-1.98,1.35-3.17.07-.71.06-1.38-.58-1.9-.59-.48-.48-1.13-.35-1.82.96-4.94,1.6-9.93,2.03-14.95.1-1.19-.21-1.88-1.49-2.14-1.04-.22-1.88-.88-2.39-1.88-.22-.43-.31-.86.2-1.09.72-.32,1.17-.81,1.5-1.52.22-.48.75-.66,1.24-.79,1.26-.32,2.18-1.1,3.02-2.06,1.96-2.26,3.38-4.91,5.34-7.17,6.09-7.02,13.69-10.88,23.07-10.88,2.53,0,5.05.45,7.33,1.57,1.54.76,3.07,1.69,4.71,1.95,2.3.35,4.12,1.41,5.8,2.84,3.14,2.67,4.33,7.3,3.03,11.21-.93,2.81-2.62,5.06-4.86,6.95-2.59,2.18-5.02,4.52-6.46,7.66-1.14,2.51-1.15,4.97.7,7.19,1.02,1.22,2.4,1.8,3.99,1.85,1.2.04,2.4.15,3.56.5,1.06.32,2.01.8,2.65,1.77.35.52.88.89,1.44,1.15,1.74.8,3.08,2.06,4.13,3.64.43.65.94.91,1.74.84,1.96-.18,3.94-.2,5.89-.61.81-.17,1.57-.42,2.27-.85.52-.32.82-.78.66-1.36-.29-1.09.31-1.58,1.15-1.96,1.63-.75,2.84-1.99,3.97-3.34.6-.72.5-1.25-.39-1.59-.04-.01-.07-.04-.1-.05-2.29-.88-2.54-1.1-.24-2.69,2.27-1.57,3.86-3.67,4.51-6.4.16-.67,0-1.07-.68-1.37-1.01-.44-1.04-.84-.18-1.57.89-.75,1.78-1.49,2.39-2.51.36-.61.65-1.23.73-1.94.09-.83-.09-1.41-1.1-1.53-1.01-.12-1.15-.54-.52-1.41.5-.69,1.08-1.32,1.58-2.01.49-.66.8-1.42.87-2.25.13-1.68-.57-2.27-2.19-1.88-1.92.46-3.82,1-5.81,1.12-2.48.15-4.79-.3-6.74-1.94-.73-.61-1.57-.78-2.48-.83-1.16-.06-2.33-.04-3.47-.3-2.52-.59-4.57-3.25-4.47-5.83.03-.83.46-1.14,1.23-.79.63.29,1.21.66,1.82,1,2.47,1.32,5.11,1.6,7.84,1.2.5-.07,1.08-.24,1-.89-.08-.69-.7-.73-1.25-.72-.84,0-1.56.37-2.24.84-.83.57-1.5.51-1.96-.47-.3-3.18.82-5.66,3.57-7.39,2.46-1.54,5.12-2.57,7.98-3.01,1.72-.27,3.1-.93,4.29-2.26,2.54-2.85,5.8-3.83,9.56-3.24,3.22.5,6.35,1.38,9.52,2.1,1.11.25,2.17.35,3.24-.3.92-.55,1.37-.26,1.65.83.38,1.46.79,1.85,2.29,1.91,1.57.06,3.18.27,4.54-.9.5-.43.88-.08.94.51.34,3.27-.69,6.58-3.78,8.38-.87.51-1.03,1.02-.63,1.87,1.21,2.6,2.23,5.27,2.95,8.05.25.97.74,1.78,1.68,2.25.37.18.6.47.56.93-.05.52-.4.79-.83.83-1.21.13-1.33.93-1.34,1.9-.02,2.79.03,5.57.87,8.27.25.79.61,1.47,1.21,2.07,1.16,1.17,1.04,1.97-.4,2.79-.56.32-.59.79-.58,1.28.09,2.79.26,5.57.84,8.3.23,1.1.69,1.99,1.95,2.34,1.09.3,1.17,1.01.32,1.78-.26.23-.56.41-.84.62-.99.75-.97.92.13,1.59,1.3.79,2.74,1.22,4.41,1.57-.92.83-1.15,2.12-2.5,2.28-.49-.53-.96-.28-1.42.04-.48.33-.59.78-.36,1.3.13.29.33.64-.06.75-.38.1-.41-.4-.5-.64-.48-1.36-1.09-2.64-1.96-3.78-.52-.69-1.09-1.24-1.7.14-.33-.64-.57-1.12-.82-1.59-.66-1.22-1.53-2.24-2.85-2.78-1.16-.47-1.85-.17-2.28.99-.33.88-.4,1.81-.47,2.74-.09,1.18-.19,2.35-.28,3.53-.66-1.44-1.01-2.9-1.6-4.29-.37-.86-.78-.95-1.41-.25-1.21,1.36-2.3,2.81-3.23,4.38-.42.7-.43,1.35-.06,2.08,1.01,2.01,2.15,3.94,3.42,5.79,1.35,1.96,2.44,2.02,3.86.13,1.74-2.32,3.06-4.77,2.07-7.82-.07-.22-.18-.42.08-.6.21-.15.27.06.36.14,1.95,1.89,4.04,3.46,7.28,2.7-.7.88-.92,1.98-1.76,1.94-1.84-.09-2.7.83-3.17,2.42-1.36-1.4-1.43-1.4-2.61.24-.13.19-.23.4-.35.6-.23.05-.29.23-.34.43-1.95,2.37-1.72,3.28,1.09,4.29.03.01.08,0,.12,0,0,0,.02,0,.02,0,.42.38.18.74-.02,1.12-.16.3-.36.29-.67.2-1.82-.49-1.82-.48-2.73,1.04-.02.04-.12.04-.22.06-.42-.61-.74-1.44-1.71-1.26-.9.17-1.33.87-1.52,1.71-.14.61-.07,1.24.21,1.8.42.82.84,1.64,1.59,2.23,0,0,0,0,0,0,.33.61.84,1.05,1.36,1.49ZM88.94,74.9h.01c-.2.85-.23,1.81-1.3,2.1-3.27.91-4.25,4.1-2.05,6.7.79.94,1.68,1.05,2.46.16,1.93-2.22,3.64-4.59,4.22-7.56.23-1.21.5-2.51-.22-3.61-1.27-1.96-2.96-3.56-4.76-5.04-.57-.47-.93-.32-1.26.31-.31.6-.35,1.35-.96,1.82-.23-.48-.2-1.07-.64-1.37-.76-.51-.5-1-.08-1.54.64-.83,1.23-1.69,1.89-2.5,1.18-1.46.85-2.53-.38-4.02-.47-.57-1.02-.61-1.59-.03-1.07,1.08-1.57,2.43-2,3.84-.38,1.25-.2,2.64-.93,3.85-.68-.51-.81-1.21-1.1-1.83-.33-.7-.64-1.49-1.59-1.5-.87,0-1.06.79-1.4,1.37-.83,1.43-1.18,3.07-1.94,4.55-.27.52-.43,1.47.08,1.99.52.53,1.23.01,1.84-.17.26-.08.49-.23.75-.3.58-.14,1.2-.78,1.71-.35.49.41-.23.95-.28,1.47-.06.65-.24,1.35.39,1.83.62.47,1.28.21,1.86-.11,1.01-.56,1.71-1.42,2.22-2.45.12-.24.04-.67.53-.66.75.94.42,2.15.78,3.2.45,1.28,1.16,1.53,2.28.77.47-.32.75-.97,1.46-.93ZM92.73,43.35v-.02c-.25.49-.47.98-.72,1.46-.15.3-.39.56-.73.3-.99-.75-1.38.06-1.81.68-.74,1.06-.64,2.28-.56,3.48.05.8.33,1.27,1.34,1.03.56-.13,1.01-.37,1.44-.65,2.59-1.69,4.38-3.9,4.42-7.17,0-.59.01-1.23-.89-1.14-.45.04-.63-.25-.64-.65-.03-1.09,0-2.17.31-3.29.6.66,1.09,1.26,1.65,1.79.51.49,1.15.7,1.82.38,1.4-.68,2.31-1.8,2.6-3.34.1-.56-.07-1.17-.6-1.55-.44-.32-.86-.22-1.3.03q-1.44.83-2.06-.79c-.57-1.48-1.68-2.11-2.81-1.59-1.33.62-2.12.09-2.22-1.51.27-.09.43.1.61.23,1.13.79,1.87.46,2.02-.91.07-.7.03-1.41-.5-1.96-.68-.69-.97-1.57-1.18-2.48-.23-.96-.68-1.82-1.38-2.51-.4-.39-.92-.74-1.29.05-.74,1.58-1.28,3.23-1.75,4.91-.08.3-.14.74.33.67,1.37-.2.8.63.63,1.17-.54,1.77-1.39,3.45-1.77,5.27-.3,1.4-.15,1.61,1.23,1.87-.24.77-.85,1.28-1.26,1.92-.61.97-.53,1.15.58,1.21.41.02.96-.09.98.53.02.59-.53.6-.94.63-.68.04-1.35.1-1.77.69-1.12,1.55-1.97,3.24-2.55,5.05-.28.89.18,1.3,1.05.97,1.01-.39,1.93-.94,2.76-1.67,1.19-1.05,1.53-2.45,1.68-4.19.8,1.17,1.67,1.57,2.8,1.08.17-.07.34-.2.52-.01ZM36.43,39.87c-.17.82-.29,1.34-.39,1.86-.7,3.73-.2,7.26,1.97,10.43.93,1.36,2.06,1.39,3.17.15.49-.55.87-1.18,1.31-1.77.16-.21.27-.52.59-.49.38.04.29.41.36.64.29,1.01.66,1.97,1.17,2.89,1.14,2.08,2.73,1.86,4.33,1.02.85-.45.99-1.16.47-1.94-.41-.61-.86-1.2-1.36-1.73-1.88-1.99-2.42-4.34-1.95-6.98.1-.53.23-1.06.32-1.59.15-.93.32-1.9-.76-2.43-.77-.38-2.58,0-3.12.7-.82,1.07-1.66,2.15-1.99,3.5-.24.97-.51,1.94-.76,2.9-.33-4.86.85-7.1,4.99-9.61.93-.56,1.89-1.07,2.85-1.56,1.97-1.01,3.9-2.07,5.64-3.45,4.52-3.57,5.5-8.33,2.5-13-1.58-2.47-3.68-4.3-6.86-4.5-.98-.06-1.96-.35-2.87-.81-3.16-1.63-6.55-1.97-9.96-1.33-9.39,1.75-16.06,7.26-20.75,15.38-.35.61-.96,1.39-.39,2.01.62.67,1.46.13,2.15-.19,1.63-.75,3.08-1.76,4.34-3.06.39-.4.85-1.23,1.5-.72.81.64,1.44.38,2.12-.01,3.54-2.07,6.93-4.35,10.03-7.06,1.03-.89,2.11-1.74,3.51-2.04-.43.44-.92.78-1.4,1.14-.82.62-1.7,1.18-2.07,2.25-.4,1.16-.15,1.6,1.07,1.67,1.26.08,2.46-.24,3.66-.57,1.66-.46,3.32-.9,5.07-.68-.51.27-1.07.43-1.57.69-.59.3-.98.77-.79,1.51.18.67.67.9,1.31.94.94.05,1.85-.16,2.74-.43,2.5-.76,4.44.56,6.7,1.64-.39.14-.53.2-.67.24-.89.27-1.8.5-2.42,1.28-.76.95-.08,1.65.37,2.41.06.11.04.32-.02.43-.14.21-.34.1-.51.01-.89-.42-1.54-1.08-1.7-2.07-.17-1.07-.88-1.49-1.82-1.67-.85-.16-1.69-.09-2.54.1-2.23.5-4.04,1.72-5.72,3.19-.49.43-.99.85-1.68,1.44.22-.95.69-1.43,1.04-1.97.71-1.11,1.53-2.16,1.9-3.44.34-1.17-.08-1.75-1.24-1.75-.84,0-1.59.3-2.33.65-1.23.57-2.44,1.19-3.69,1.71-.64.27-1.34.43-2.01,0-1.41-.89-1.99-.84-3.26.27-1.06.93-2.15,1.9-3.59,2-2.17.15-3.34,1.42-4.16,3.2-1.12,2.43-2,4.95-2.95,7.45-.1.28-.16.81-.66.61-.38-.15-.12-.51-.06-.8.28-1.37.44-2.75.4-4.15,0-.36.16-.84-.27-1.05-.49-.23-.88.08-1.25.39-1.21,1.05-2.02,2.33-2.26,3.94-.45,2.98-.94,5.96-1.33,8.96-.26,1.99-.39,4.01-.55,6.01-.03.37-.09.84.32,1.05.41.21.76-.1,1.01-.38.67-.73,1.43-1.43,1.92-2.27,1.21-2.11,2.27-4.3,3.09-6.6.14-.4.21-.93.81-1.08.09.22.19.43.27.64.68,1.73,1.09,1.8,2.24.32,1.01-1.3,1.61-2.81,2.21-4.33,1.14-2.9,1.65-5.96,2.29-8.99.18-.88.52-1.03,1.24-.54.69.47,1.39.63,2.16.12.21-.14.45-.47.84-.17-.12.28-.23.56-.38.83-2.48,4.67-5.08,9.27-7.74,13.84-.79,1.36-1.66,2.6-3.26,3.14-.41.14-.74.55-1.05.89-1.3,1.47-2.46,3.06-3.37,4.8-1.34,2.55-.88,5.08.18,7.59.42.99.96.85,1.63.27,1.26-1.08,1.99-2.48,2.56-4,.63-1.69.76-3.47.89-5.24.03-.41-.07-.96.37-1.16.51-.22.69.36.98.63.34.33.68.76,1.15.72,1.6-.14,1.8.97,2.03,2.11.52,2.51,1.27,4.95,2.5,7.21,1.08,1.98,2.32,2.22,4.28,1.01,1.61-.99,2.64-2.43,3.56-4.05.17.76.2,1.48.31,2.19.4,2.57,1.48,4.79,3.5,6.49,1.11.94,1.46.89,2.35-.25.5-.64.96-1.31,1.45-1.96.35-.47.59-.57.83.11.43,1.24.89,1.34,1.89.49.89-.76,1.48-1.78,2.22-2.68.26-.31.47-.85.95-.72.41.12.33.65.41,1.02.41,2.09,1.09,4.03,2.72,5.52,1.83,1.68,3.79,1.65,5.1-.47,1.02-1.66,2.44-1.92,4.07-2.07.81-.07,1.24.11,1.14,1.06-.1.93.07,1.85.41,2.73.55,1.42,1.44,1.72,2.69.86.93-.64,1.69-1.47,2.31-2.42.26-.4.42-.89.94-1.2.04.25.06.4.08.54.15,1.89.97,2.36,2.67,1.48,1.39-.72,2.58-1.7,3.53-2.96.59-.79.96-1.68,1.09-2.66.1-.79.1-1.63-.62-2.1-.77-.5-1.38.09-1.95.56-.21.17-.43.33-.62.52-.59.59-.95.44-1.27-.29-.57-1.28-1.65-1.47-2.66-.5-.22.21-.39.48-.6.71-.21.24-.46.32-.66,0-.54-.87-1.43-.84-2.27-.86-1.22-.03-2.35-.29-3.44-.88-2.15-1.18-4.42-.52-5.7,1.58-.23.38-.45.76-.8,1.36-.2-.65-.33-1.05-.45-1.44-.53-1.71-1.18-3.36-2.26-4.81-1.33-1.77-2.34-1.92-4.11-.65q-1.17.84-1.6-.53c-.8-2.6-3.22-3.14-5.1-1.13-.13.14-.25.3-.39.43-.3.29-.58.7-1.07.53-.45-.16-.38-.64-.45-1-.62-3.37-2.73-5.92-4.75-8.51-.35-.45-.81-.48-1.15.04-.49.76-1.1,1.43-1.36,2.35-.29,1.02-.49,2.1-1.36,3.22.17-1.49.33-2.67.43-3.85.15-1.8,0-1.98-1.75-2.3-.38-.07-.83-.02-.83-.58,0-2.26,0-4.52,0-6.78.11-.01.22-.03.33-.04.62,1.24,1.16,2.52,1.88,3.7.56.91,1.24,1.09,2.15.67,1.02-.47,2.01-1,2.87-1.73.7-.59,1.4-1.17,2.33-1.95ZM99.02,21.59q1,1.71,2.65.46s.06-.05.09-.07c1.06-.78,1.49-.6,1.65.67.04.31.07.62.14.92.1.43.43.64.77.35,1.08-.93,1.81-.12,2.51.49.78.69,1.25.67,1.44-.41.18-1.02.79-1.3,1.74-1.15.26.04.39.22.59.33.37.2.77.57,1.16.27.37-.29.2-.8.12-1.21-.26-1.33-.57-2.64-1.05-3.92-.41-1.09-.71-2.3-1.6-3.05-.94-.78-.77-1.31-.06-2.03.29-.29.62-.7.32-1.13-.7-1.03-.07-1.45.75-1.83,1.1-.5,2.05-1.22,2.94-2.03.26-.23.72-.94.15-.93-1.52.03-2.7-.93-4.14-1.07-1.44-.14-2.86.16-4.29.08-.66-.04-1.25-.35-.79-.95.85-1.1-.06-1.19-.66-1.36-3.58-1-7.2-1.86-10.91-2.25-3.08-.32-6.37,1.49-7.8,4.27-.24.46-.35.95-.26,1.46.05.29.06.67.49.67.35,0,.44-.29.46-.56.02-.31.24-.47.42-.67,1.54-1.66,4.78-2.22,6.76-1.13.76.42,1.89.8,1.86,1.72-.03,1-1.25,1.08-2.04,1.42-1.76.75-3.69.83-5.53,1.28-1.6.4-1.79,1.08-.75,2.36,1.08,1.33,2.46,2.35,3.77,3.44,1.27,1.06,2.34,2.24,2.93,3.82.23.62.56,1.16,1.27,1.42.6.23.67.84.34,1.26-1.2,1.54-.57,3.08-.1,4.63.15.48.39.99.98,1.03.59.04.87-.47,1.11-.9.46-.85.83-1.75,1.28-2.6.52-.98.56-2.17,1.3-3.09ZM81.14,56c-.69,1.3-1.62,2.24-2.43,3.26-1.11,1.39-2.24,2.77-3.02,4.39-.18.37-.45.81-.05,1.17.38.34.8.09,1.18-.11.48-.25.97-.48,1.44-.76.84-.51,1.62-.89,2.04.47.1.33.42.58.8.59.49.01.32-.44.42-.69.98-2.51,2.25-4.89,3.5-7.26.12-.23.23-.56.55-.53.34.03.31.39.4.63.27.68.49,1.39.84,2.03.62,1.15,1.44,1.28,2.45.42.74-.63,1.33-1.4,1.87-2.21.78-1.16,1.53-2.33,2.35-3.46.83-1.14.88-1.09,1.61.06,1.18,1.85,2.5,3.61,4.2,5.03.85.71,1.74.75,2.49-.06,1.59-1.71,2.96-3.59,3.71-5.82.46-1.37-.49-3.31-1.78-3.91-.56-.26-.98-.02-1.39.28-.71.54-1.1,1.3-1.36,2.12-.28.9-.67.95-1.23.22-.85-1.1-1.66-2.24-2.59-3.28-1.05-1.17-1.48-1.17-2.78-.28-1.75,1.21-3.32,2.64-4.88,4.07-.29.27-.53.84-.99.64-.36-.16-.18-.7-.19-1.07-.02-.56-.15-1.07-.39-1.56-.84-1.72-1.89-2.02-3.39-.86-1.69,1.31-3.17,2.84-4.53,4.48-.4.48-1.12.96-.79,1.67.35.76,1.17.24,1.93.33ZM79.43,7.23c-2.41.24-5.24,1.51-7.65,3.7-.81.74-1.47,1.6-1.72,2.7-.23,1.03.1,1.37,1.08.96,1.21-.52,2.33-.39,3.47.13.96.43,1.88.49,2.89,0,1.15-.56,2.36-.34,3.47.23,1.91.96,3.6,2.27,5.2,3.68.25.22.62.47.52.84-.12.43-.58.29-.9.33-3.27.33-6.52.84-9.76,1.44-.43.08-1.05.06-1.04.69,0,.57.49.84,1.02.96.38.08.76.19,1.14.22,2.3.16,4.55-.08,6.77-.71,1.65-.47,3.24-1.13,5.05-1.02.63.04,1.64-.08,2.02-.86.4-.83-.26-1.45-.74-2.05-.82-1.04-1.82-1.92-2.91-2.65-2.35-1.57-3.82-3.55-4.13-6.47-.19-1.83-1.05-2.27-3.79-2.09ZM106.85,31.57c.03,1.55-.05,3.03,1.15,4.17.81.77,1.6,1.58,2.51,2.23,1.63,1.18,2.45.83,2.61-1.2.18-2.2.1-4.41-.31-6.59-.24-1.29-.41-2.62-1.25-3.69-.26-.33-.49-.83-1.03-.74-.63.11-.5.72-.58,1.13-.19.96-.28,1.94-.4,2.91-.81-1.11-1.28-2.3-2.16-3.23-1.08-1.14-1.61-1.17-2.89-.24-.48.35-.77.97-1.45,1.1-.22-.87-.37-1.71-.66-2.49-.42-1.13-1.11-1.26-2.06-.5-.7.56-1.09,1.29-1.27,2.15-.07.33-.07.65-.54.77-1.22.31-1.87,1.32-2.53,2.27-.3.42-.36.91-.09,1.43,1.32,2.6,3.52,2.89,5.32.69.38-.47.72-1.18,1.38-1.1.56.07.39.84.6,1.27.7,1.4,1.38,1.53,2.55.45.28-.26.51-.59,1.11-.76ZM109.28,44.72c1.43.6,1.27,1.38.83,2.21-.6,1.12-1.07,2.3-.58,3.55.74,1.9,2.23,3.22,3.87,4.35.54.38.99.16.98-.56-.01-.73-.02-1.48-.15-2.19-.4-2.21-.9-4.4-.61-6.66.05-.41-.03-.82-.47-.96-.99-.31-1.15-1.08-1.28-1.97-.35-2.3-2.19-3.92-4.52-4.01-.72-.03-.91-.36-.97-1-.11-1.22-.72-2.01-2.03-2.12-.36-.03-.68-.17-.91-.46-.29-.39-.65-.56-1.11-.33-.43.22-.75.57-.76,1.08,0,.41-.02.87.13,1.24.4.98.85,1.95,1.33,2.89.94,1.82,1.2,1.94,3.16,1.67.05,0,.12.07.27.18-.4.47-.78.93-1.19,1.38-.74.83-.88,1.8-.57,2.82.35,1.15.91,2.22,1.59,3.21.53.77,1.15.85,1.81.14,1.13-1.21,1.91-2.52,1.2-4.45ZM94.14,60.92c-.18-.54-.36-1.09-.53-1.64-.27-.86-.73-.95-1.48-.48-1.26.79-2.34,1.77-3.33,2.86-.37.4-.52.88-.32,1.39,1.16,2.89,2.7,5.55,4.67,7.97.34.42.71.41,1.08.04,1.83-1.8,3.54-3.69,4.67-6.02.78-1.59.51-3.06-.68-4.14-.57-.52-1.2-.98-1.85-1.39-1.04-.65-1.27-.56-1.64.58-.11.34-.18.68-.59.81ZM95.42,71.93c-1.33.03-2.16.95-2.21,2.17-.04,1.05.58,1.74,1.06,2.54,1.04,1.72,2.14,3.4,3.59,4.81.37.36.79.91,1.38.52,1.1-.73,2.05-1.64,2.64-2.85.18-.38.09-.76-.13-1.1-.74-1.13-1.72-2.2-3.03-2.34-1.5-.16-1.66-.89-1.7-2.08-.03-.99-.59-1.66-1.6-1.67ZM101.9,72.75c-.64-.83-.77-1.55-1-2.22-.2-.59-.37-1.19-.72-1.7-.56-.83-1.09-.88-1.81-.21-1.22,1.13-1.36,2.38-.4,3.71.66.91,1.42,1.73,2.22,2.53,2.46,2.45,3.34,2.39,5.41-.41.16-.22.31-.45.43-.69.35-.69.3-1.38-.22-1.95-.82-.9-1.83-1.55-2.98-1.97-.74-.27-1.13.09-1.12.84.01.59.11,1.18.19,2.08ZM98.9,41.08c-1.11-.03-2.09,1.08-2.25,2.47-.21,1.87.91,3.03,2.18,4.11,1.19,1.02,1.98,1.01,3.18,0,1.93-1.63,2.23-3.98.69-5.42-.5-.47-1.01-.68-1.42.05-.43.77-.65.36-.91-.1-.34-.6-.79-1.05-1.47-1.11ZM77.54,18.52c.95-.18,1.82-.33,2.69-.52.32-.07.82-.07.8-.49-.02-.5-.56-.46-.92-.49-1.32-.12-2.63-.04-3.88.47-1.75.71-3.56.96-5.45.97-2.04.01-3.97-.6-5.98-.78-.22-.02-.55-.03-.65.09-.21.26.05.51.24.69.95.93,1.96,1.73,3.37,1.88,2.9.31,5.8.31,8.68-.15,1.43-.23,1.64-.59,1.09-1.66ZM55.52,58.7c.84-.02,1.5-.35,1.86-1.14.3-.65-.02-1.16-.5-1.52-1.45-1.1-3.13-1.62-4.92-1.83-.58-.07-.84.23-.75.84.24,1.7,2.55,3.67,4.31,3.64ZM61.52,60.19c.39.03.67.05.83-.23.14-.24-.02-.45-.15-.63-.72-.96-1.61-1.75-2.63-2.38-.32-.2-.69-.19-.97.07-.3.28-.22.66-.05.96.68,1.21,1.77,1.88,2.96,2.22ZM86.74,7.3c.56,1.68,1.26,2.03,2.78,1.32.71-.34,1.39-.77,2.05-1.19.22-.14.67-.34.29-.69-.39-.36-.87-.7-1.44-.64-.57.06-.49.56-.57.97-.27,1.33-1.11,1.58-2.16.68-.27-.23-.46-.66-.95-.45Z"/>
    <path class="cls-4" d="M153.9,32.78c-2.23,1.25-4.43,2.46-6.62,3.7-.32.18-.55.2-.81-.09-2.48-2.87-5.63-5.08-7.93-8.15-2.34-3.11-3-6.47-1.95-10.19.76-2.7,1.72-5.3,3.76-7.35,1.41-1.41,3.1-2.22,5.08-2.22,1.71,0,3.06-.59,4.22-1.83,1.38-1.48,3.17-2.04,5.15-2.01,11.14.2,20.81,3.95,28.77,11.87,1.59,1.58,3.01,3.3,4.5,5.18-1.57.23-2.97.43-4.38.65-.5.08-.55-.3-.7-.6-.6-1.17-1.19-2.35-1.81-3.51-1.54-2.88-3.85-4.9-6.92-6.05-4.87-1.82-9.79-3.44-14.94-4.23-2.95-.45-5.78-.08-8.44,1.39-1.26.69-2.61,1.13-4.04,1.38-4.44.77-7.82,4.82-7.85,9.33,0,.39,0,.77.01,1.16.12,4.67,1.31,6.42,5.7,8.09,2.67,1.02,5.4,1.9,8.1,2.86.36.13.76.19,1.09.63Z"/>
    <path class="cls-4" d="M175.69,19.38c.96,1.6,2.36,2.59,3.78,3.72-1.38.51-2.55.85-4,.2-3.4-1.52-6.91-2.7-10.68-3.01-1.33-.11-2.62-.65-3.94-.97-1.02-.25-2.03-.51-3.09-.25-.71.18-.85.53-.5,1.18.47.88,1.37,1.48,1.67,2.56-.6.08-1.02-.26-1.46-.49-1.78-.95-3.68-1.4-5.69-1.38-1.73.02-3.07.69-3.92,2.24-.13.24-.25.49-.43.69-.17.19-.36.47-.65.41-.38-.08-.22-.44-.24-.68-.07-.66-.17-1.3-.55-1.87-.5-.76-1.26-.76-2.11-.58,1.18-1.96,3.65-2.59,6.14-1.65.47.18.93.37,1.39.58.78.35,1.43.26,1.91-.5.51-.8.24-1.52-.37-2.08-.52-.48-1.18-.83-1.95-1.35,2.16-.25,4.04.02,5.88.64,1.04.35,2.1.56,3.18.65.49.04,1.13.18,1.39-.29.3-.54-.2-1.03-.54-1.42-.93-1.05-2.07-1.86-3.27-2.58-.62-.37-1.34-.61-1.83-1.29.68-.35,1.23-.05,1.76.23,2.14,1.11,4.02,2.62,5.95,4.04,1.84,1.35,3.68,2.72,5.73,3.74,1.08.54,2.21.92,3.42,1.08,1.93.25,2,.23,3-1.56Z"/>
    <path class="cls-4" d="M16.33,81c.21-1.85.35-3.51.26-5.17-.09-1.62-.19-3.24-.3-5.14.84,1.26,1.25,2.47,2.05,3.44.83,1.02,1.35,1.06,2.26.1,1.12-1.18,1.68-2.67,2.24-4.15.31-.83.61-1.66,1.12-2.5.12.72.25,1.43.36,2.15.33,2.03.82,4.02,1.7,5.88.25.52.17.76-.35.95-.58.21-1.15.45-1.72.7-.57.26-1.07.58-1.46-.32-.21-.49-.81-.42-1.21-.09-.38.32-.78.67-1.02,1.1-.84,1.53-2.34,2.16-3.95,3.05Z"/>
    <path class="cls-4" d="M97.87,95.83c-.33-.32-.27-.77-.39-1.16-.32-1.09-.71-1.26-1.65-.65-.55.35-1.09.75-1.57,1.19-.37.33-.61.37-.94-.02-.3-.36-.49-.59-.08-1.06,2.01-2.28,3.67-4.79,4.43-7.78.1-.4.4-.69.64-.72.41-.04.44.46.51.76.61,2.54,2.05,4.49,4.28,5.8.71.42.27.8.13,1.14-.25.59-.56.07-.79-.07-.59-.36-1.13-.82-1.74-1.14-1.12-.58-1.85-.24-2.19.98-.15.55-.19,1.14-.26,1.71-.05.37.08.79-.37,1.04Z"/>
    <path class="cls-4" d="M168.82,24.17c.91.17,1.79.33,2.68.51.23.05.47.17.48.43.01.29-.27.31-.48.4-1.79.78-2.17.6-2.68-1.35Z"/>
    <path class="cls-4" d="M88.24,89.57c-.49-.43-.75-.65-1-.87-.73-.65-.79-1.95-.09-2.63.38-.37.5-.02.6.29.07.22.15.44.18.66.1.75.19,1.51.31,2.55Z"/>
    <path class="cls-4" d="M32.97,74.3c.16-.6.33-1.01.7-1.38.56.81.55,1.32-.7,1.38Z"/>
    <path class="cls-4" d="M111.08,71.19s.03,0,.03,0c0,0-.03,0-.03,0Z"/>
    <polygon class="cls-4" points="93.38 41.1 93.35 41.01 93.36 41.08 93.38 41.1"/>
    <path class="cls-4" d="M89.58,72.65c-.14-.09-.07-.18.02-.25.02-.01.09,0,.1.01.07.12.02.2-.11.24,0,0-.01,0-.01,0Z"/>
  </g>
</svg>