<svg viewBox="-3 2.2424429875518674 1503.984972 719.9751037344398" preserveAspectRatio="xMidYMid meet" version="1.0" xmlns="http://www.w3.org/2000/svg" style="max-height: 500px" width="1505" height="720">
<g stroke-width="0">
    <rect fill="#ffffff" rx="0" height="650" width="800" y="30" x="250"/>
  </g>

<g stroke="none" fill="#902b3c" transform="translate(0.000000,720.000000) scale(0.100000,-0.100000)">
<path fill="#902b3c" d="M0 3600 l0 -3600 7500 0 7500 0 0 3600 0 3600 -7500 0 -7500 0 0 -3600z m9008 2783 l-3 -268 -1487 1 c-818 0 -1491 3 -1495 7 -3 4 -7 121 -7 260 l-1 252 130 5 c72 3 745 7 1498 8 l1367 2 -2 -267z m-2629 -369 c10 -9 13 -1824 6 -2741 l-7 -863 -178 0 -177 0 -6 518 c-9 639 -9 3039 -1 3069 5 18 15 23 53 26 58 6 303 -1 310 -9z m1729 9 l152 -6 -2 -1801 -3 -1801 -747 -3 -748 -2 0 1805 0 1804 78 4 c151 6 1121 7 1270 0z m902 -1803 l0 -1810 -192 2 -193 3 -6 800 c-3 440 -3 1251 -1 1802 l5 1002 51 4 c28 2 115 4 194 5 l142 2 0 -1810z m685 -2033 c198 -65 415 -136 483 -158 67 -23 120 -45 116 -50 -3 -5 -442 -9 -1083 -9 -1455 0 -4532 12 -4526 18 2 2 231 76 507 163 l503 158 1820 -2 1820 -2 360 -118z m-207 -569 c66 -31 97 -85 97 -167 -1 -72 -15 -108 -61 -155 -108 -107 -288 -76 -340 59 -26 68 -16 154 23 202 72 90 174 112 281 61z m-4523 10 c19 -9 25 -19 25 -44 0 -41 -17 -53 -30 -20 -25 67 -137 60 -154 -10 -12 -45 13 -68 97 -88 86 -20 109 -39 111 -93 1 -50 -31 -95 -87 -122 -51 -25 -94 -27 -142 -7 -32 14 -35 19 -35 55 0 46 16 54 30 17 20 -55 104 -64 151 -17 53 53 28 103 -57 116 -90 13 -124 43 -124 109 0 38 37 91 74 106 31 13 111 12 141 -2z m436 -5 c12 -12 2 -83 -12 -83 -5 0 -14 11 -19 25 -25 65 -182 58 -226 -10 -25 -38 -35 -88 -28 -140 13 -97 112 -160 217 -138 29 6 57 13 62 15 6 1 12 -1 14 -7 9 -23 -63 -50 -134 -50 -141 0 -225 76 -225 202 0 70 13 104 57 145 50 47 88 59 190 55 51 -2 98 -8 104 -14z m164 8 l40 -8 -27 -13 -28 -13 0 -136 c0 -75 4 -141 8 -147 23 -35 111 -45 162 -19 17 9 33 27 37 43 12 45 9 255 -3 259 -6 2 -20 10 -30 17 -17 13 -16 15 19 21 41 8 107 -1 107 -14 0 -5 -11 -12 -25 -15 l-25 -6 0 -128 c0 -141 -11 -178 -63 -216 -37 -27 -146 -29 -194 -3 -50 27 -56 49 -62 207 -6 141 -7 145 -28 148 -13 2 -23 7 -23 12 0 18 69 24 135 11z m623 -10 c100 -51 130 -162 75 -271 -110 -213 -421 -119 -389 118 8 59 49 120 101 149 53 30 159 32 213 4z m272 10 l25 -7 -30 -15 -30 -14 -3 -158 -3 -157 81 0 c81 0 81 0 91 30 6 17 17 30 25 30 17 0 17 -5 5 -48 -9 -30 -8 -32 15 -32 36 0 54 24 109 145 75 165 109 230 120 230 5 0 42 -76 82 -170 43 -100 83 -179 97 -191 14 -12 22 -25 19 -28 -10 -10 -127 -7 -143 4 -8 5 -10 10 -4 10 5 0 18 6 28 13 17 13 17 15 -3 56 l-22 42 -72 -3 -72 -3 -20 -38 -20 -38 23 -17 c13 -10 20 -21 16 -25 -11 -10 -432 -9 -438 2 -3 5 1 14 9 21 12 10 15 43 15 171 l0 159 -25 6 c-27 7 -33 19 -12 27 18 8 108 6 137 -2z m958 -7 c26 -18 31 -74 7 -74 -8 0 -15 9 -15 20 0 38 -67 52 -120 25 -62 -32 -44 -109 27 -120 118 -20 161 -55 148 -121 -10 -56 -68 -110 -128 -119 -56 -9 -110 0 -127 20 -14 17 -9 77 6 82 7 2 15 -8 18 -22 7 -28 40 -45 86 -45 42 0 59 9 75 41 32 61 9 92 -76 104 -60 9 -107 37 -115 70 -11 45 5 92 42 124 30 27 42 31 92 31 36 0 66 -6 80 -16z m195 10 c43 -8 46 -15 15 -29 -22 -10 -23 -16 -26 -141 -3 -163 3 -175 95 -182 52 -4 63 -1 89 21 l29 25 0 134 c0 128 -1 133 -22 143 -13 5 -23 13 -23 17 0 13 116 21 262 16 l150 -5 30 -31 c46 -45 43 -84 -10 -133 -35 -33 -48 -39 -87 -39 -57 0 -58 14 -1 29 49 12 72 48 60 95 -8 33 -31 46 -83 46 l-41 0 0 -160 c0 -150 1 -160 20 -170 36 -19 11 -30 -66 -30 -77 0 -92 9 -49 28 l25 12 -6 152 c-3 84 -7 159 -10 166 -4 13 -71 17 -90 4 -7 -4 -13 -57 -16 -137 -5 -145 -18 -184 -68 -210 -74 -38 -180 -27 -223 25 -23 27 -25 40 -32 176 -7 131 -9 147 -26 151 -11 3 -19 9 -19 13 0 17 62 24 123 14z m931 0 c11 -4 16 -19 16 -45 0 -41 -18 -53 -27 -19 -7 25 -34 32 -99 28 l-49 -3 -3 -59 c-2 -41 1 -62 10 -67 24 -16 77 -10 98 11 11 11 22 20 25 20 9 0 5 -109 -4 -115 -6 -3 -15 4 -21 15 -9 16 -21 20 -61 20 l-50 0 3 -67 3 -68 73 -3 73 -3 10 31 c16 45 30 36 27 -17 l-3 -48 -142 -3 c-96 -2 -143 1 -143 8 0 6 7 13 15 16 12 5 15 34 15 170 l0 164 -27 12 -28 11 30 7 c37 9 238 12 259 4z m333 -15 c25 -15 43 -50 43 -81 0 -13 -20 -41 -49 -68 l-49 -46 64 -77 c57 -68 69 -77 98 -77 29 0 34 4 40 31 3 17 6 91 6 164 l0 133 -32 12 c-30 11 -31 13 -13 20 38 16 155 8 155 -10 0 -4 -9 -10 -20 -13 -19 -5 -20 -14 -20 -170 0 -156 1 -165 20 -170 11 -3 20 -10 20 -16 0 -12 -215 -16 -244 -5 -19 7 -156 185 -156 202 0 7 13 12 29 12 46 0 81 34 81 80 0 48 -21 63 -83 58 l-42 -3 -3 -158 -3 -157 26 -12 c38 -17 12 -28 -67 -28 -43 0 -68 4 -68 11 0 6 8 13 19 16 16 4 19 19 26 123 8 143 0 211 -26 217 -22 6 -25 19 -6 27 24 11 232 -1 254 -15z m1013 -7 c13 -10 23 -33 27 -57 5 -43 -12 -71 -67 -106 l-25 -16 27 -39 c15 -21 47 -61 70 -88 40 -45 46 -48 76 -42 l32 8 0 163 c0 155 -1 164 -20 170 -52 16 -9 25 126 25 l145 0 -3 -37 c-4 -43 -23 -55 -32 -18 -6 24 -10 25 -76 25 l-70 0 0 -70 0 -70 47 0 c34 0 53 6 70 22 l23 21 0 -61 c0 -61 -12 -82 -25 -42 -5 17 -15 20 -61 20 l-54 0 0 -70 0 -71 77 3 c72 3 78 5 83 27 3 14 11 26 18 29 16 5 16 -70 0 -86 -8 -8 -65 -12 -189 -12 -162 0 -178 2 -202 20 -29 23 -147 176 -147 191 0 5 11 9 25 9 33 0 81 25 89 45 21 54 -13 95 -78 95 -55 0 -56 -2 -56 -183 l0 -138 30 -10 c49 -17 24 -29 -61 -29 -75 0 -103 12 -61 27 9 4 20 11 24 17 12 17 9 285 -2 307 -6 10 -17 19 -25 19 -8 0 -15 5 -15 10 0 6 50 10 129 10 108 0 132 -3 151 -18z m-4160 -526 c19 -9 25 -19 25 -44 0 -38 -15 -44 -32 -12 -15 30 -32 40 -69 40 -46 0 -84 -34 -84 -75 0 -42 12 -51 96 -70 88 -21 110 -35 118 -79 8 -41 -8 -77 -51 -118 -89 -85 -244 -52 -219 46 8 33 24 33 32 1 14 -57 104 -76 149 -30 27 27 34 85 13 102 -7 6 -40 15 -72 22 -97 18 -135 56 -122 123 17 93 121 138 216 94z m-686 -11 c19 -9 48 -33 63 -53 25 -32 28 -46 28 -107 0 -90 -33 -151 -103 -192 -42 -25 -59 -28 -154 -32 -59 -2 -115 0 -124 3 -16 6 -16 8 0 24 13 16 16 44 16 179 l0 160 -27 13 -28 14 35 7 c61 13 254 3 294 -16z m1251 12 l40 -3 -32 -14 -33 -14 0 -122 c0 -148 9 -179 57 -195 47 -15 111 -6 137 20 16 17 22 39 27 104 3 45 4 108 1 140 -4 51 -8 60 -31 70 -22 9 -5 12 104 19 189 11 326 2 367 -26 55 -36 78 -81 78 -148 0 -97 -36 -160 -115 -201 -48 -25 -248 -38 -268 -18 -9 9 -9 14 1 20 9 6 12 49 10 177 l-3 169 -43 3 c-38 3 -43 0 -52 -23 -6 -14 -10 -76 -10 -136 0 -183 -32 -222 -178 -217 -80 3 -85 4 -113 36 l-29 32 0 150 0 149 -32 9 c-32 8 -33 7 -38 -26 -6 -41 -27 -54 -32 -20 -3 20 -10 23 -50 26 l-46 3 -7 -105 c-4 -58 -4 -131 0 -161 6 -48 10 -57 33 -66 21 -8 23 -12 12 -19 -18 -12 -117 -12 -145 0 -19 7 -18 9 8 19 l27 11 -2 162 c-3 163 -3 163 -27 166 -40 6 -69 -6 -73 -31 -2 -12 -7 -22 -13 -22 -11 0 -20 59 -12 78 3 9 65 11 223 9 121 -1 237 -4 259 -5z m1368 -167 c42 -96 86 -184 97 -195 11 -12 20 -24 20 -28 0 -9 -112 -9 -134 -1 -23 9 -20 24 4 24 24 0 25 18 6 65 l-15 35 -79 0 -78 0 -17 -35 c-22 -47 -22 -54 9 -65 41 -16 17 -30 -52 -30 -61 0 -84 13 -48 27 17 6 68 105 139 271 27 62 54 111 59 109 6 -2 46 -82 89 -177z m467 170 c0 -6 -9 -23 -20 -38 -11 -15 -51 -101 -89 -192 -41 -98 -74 -165 -82 -165 -13 0 -60 96 -128 265 -19 46 -45 94 -59 107 l-25 23 82 0 c47 0 81 -4 81 -10 0 -5 -7 -10 -15 -10 -30 0 -26 -27 20 -146 39 -101 65 -154 65 -133 0 3 20 59 45 125 25 65 45 123 45 129 0 7 -12 17 -26 23 -14 7 -22 17 -19 22 8 13 125 13 125 0z m264 -174 c43 -96 86 -182 97 -192 31 -28 23 -34 -43 -34 -69 0 -110 15 -70 26 26 7 27 22 8 69 l-15 35 -79 0 -78 0 -17 -35 c-22 -47 -22 -54 9 -65 14 -6 22 -14 19 -20 -7 -11 -135 -14 -135 -3 0 3 12 18 26 32 14 14 45 69 68 121 96 212 116 251 124 246 5 -3 44 -84 86 -180z m584 166 c2 -7 -5 -16 -17 -19 -20 -5 -21 -12 -21 -122 0 -152 -10 -251 -24 -251 -16 0 -74 62 -192 205 l-99 120 -3 -125 c-3 -146 0 -165 30 -174 22 -7 22 -7 3 -16 -28 -12 -112 -12 -120 0 -3 5 6 12 20 16 l25 6 0 167 0 168 -27 14 c-28 14 -27 14 25 17 34 2 60 -2 69 -10 9 -7 62 -67 117 -133 56 -65 109 -128 118 -140 17 -19 17 -14 18 116 0 128 -1 137 -20 142 -29 7 -25 25 8 30 46 7 85 3 90 -11z m340 12 c28 -4 52 -10 52 -13 0 -4 -61 -82 -135 -174 -74 -93 -135 -170 -135 -173 0 -2 51 -4 114 -4 l114 0 6 36 c10 50 32 38 28 -15 -3 -36 -1 -41 18 -41 32 0 63 41 108 142 109 247 113 254 127 235 7 -11 46 -93 86 -184 48 -108 81 -170 96 -180 35 -23 18 -33 -57 -33 -67 0 -103 16 -61 27 25 6 27 32 6 73 -15 29 -17 30 -93 30 l-78 0 -17 -35 c-23 -47 -22 -54 11 -67 26 -11 26 -12 -23 -19 -61 -9 -421 -11 -453 -3 -13 4 -21 12 -19 18 3 7 62 83 131 170 69 87 126 162 126 167 0 10 -143 12 -177 3 -12 -3 -23 -15 -25 -27 -2 -11 -9 -22 -15 -25 -16 -5 -17 36 -3 72 9 26 11 26 112 26 57 0 127 -3 156 -6z m-3978 -14 c0 -5 -11 -12 -25 -16 l-25 -6 0 -165 0 -164 30 -10 c49 -17 24 -29 -60 -29 -83 0 -106 10 -65 28 l25 12 0 165 c0 91 -4 165 -8 165 -5 0 -17 7 -28 15 -17 13 -11 14 69 15 50 0 87 -4 87 -10z m1865 -5 c-45 -32 -45 -32 -45 -173 0 -163 3 -178 38 -187 25 -7 26 -8 7 -15 -11 -5 -50 -9 -87 -9 -70 -1 -89 12 -43 29 25 9 25 11 25 122 0 160 -9 220 -32 226 -44 11 -11 22 70 22 78 -1 85 -2 67 -15z m3101 0 c-10 -8 -24 -16 -30 -18 -7 -2 -11 -57 -11 -163 l0 -159 30 -14 c27 -13 28 -15 10 -22 -26 -10 -115 -10 -140 0 -19 8 -18 9 8 21 l27 13 0 143 c0 167 -7 197 -48 192 -19 -2 -27 -9 -28 -23 -2 -40 -4 -46 -15 -40 -5 4 -14 18 -20 32 -8 21 -14 24 -51 21 l-43 -3 -3 -163 -2 -163 30 -10 c16 -6 27 -15 24 -20 -6 -11 -122 -11 -149 1 -19 7 -18 9 8 19 l27 11 0 165 0 165 -43 0 c-46 0 -67 -13 -67 -43 0 -37 -25 -10 -28 31 l-3 42 268 0 c235 -1 266 -2 249 -15z"/>
<path fill="#902b3c" d="M9311 1597 c-104 -53 -98 -256 9 -312 64 -33 152 -6 182 55 42 83 9 217 -62 252 -41 21 -95 23 -129 5z"/>
<path fill="#902b3c" d="M6003 1591 c-45 -28 -63 -69 -63 -141 0 -76 21 -123 69 -156 68 -46 167 -21 197 51 18 43 18 136 0 178 -22 53 -57 78 -117 83 -43 4 -61 1 -86 -15z"/>
<path fill="#902b3c" d="M6815 1473 c-14 -31 -23 -58 -21 -60 6 -6 96 -6 102 0 8 7 -37 117 -47 117 -5 0 -21 -25 -34 -57z"/>
<path fill="#902b3c" d="M4835 981 c-4 -44 -4 -118 0 -165 l7 -86 57 0 c112 0 171 57 171 167 0 39 -6 76 -16 94 -21 41 -84 69 -155 69 l-57 0 -7 -79z"/>
<path fill="#902b3c" d="M6718 1054 c-5 -4 -8 -79 -8 -167 l0 -160 74 5 c119 8 157 47 157 164 0 113 -39 156 -149 162 -37 2 -70 0 -74 -4z"/>
<path fill="#902b3c" d="M7527 928 l-25 -63 29 -3 c16 -2 42 -2 58 0 l29 3 -25 63 c-14 34 -29 62 -33 62 -4 0 -19 -28 -33 -62z"/>
<path fill="#902b3c" d="M8283 978 c-14 -17 -43 -87 -43 -104 0 -10 15 -14 56 -14 53 0 55 1 48 23 -3 12 -16 41 -28 65 -17 34 -25 41 -33 30z"/>
<path fill="#902b3c" d="M9557 928 l-25 -63 55 -3 c30 -2 57 -1 60 1 6 7 -43 121 -55 125 -5 1 -21 -25 -35 -60z"/>
</g>
</svg>