<svg xmlns="http://www.w3.org/2000/svg" version="1.0" width="1200.000000pt" height="1200.000000pt" viewBox="-3 -3 1206 1206" preserveAspectRatio="xMidYMid meet"><g id="deeditor_bgCarrier" stroke-width="0">
    <rect id="dee_c_e" x="-3" y="-3" width="1206" height="1206" rx="0" fill="#ffffff" strokewidth="0"/>
  </g>

<g transform="translate(0.000000,1200.000000) scale(0.100000,-0.100000)" fill="#902b3c" stroke="none">
<path d="M0 6000 l0 -6000 6000 0 6000 0 0 6000 0 6000 -6000 0 -6000 0 0 -6000z m8528 4658 l-3 -443 -2493 -1 c-1371 0 -2498 3 -2505 8 -9 5 -13 107 -15 429 -2 232 -1 428 2 435 5 12 391 14 2511 14 l2505 0 -2 -442z m-1265 -607 c4 -4 6 -1364 5 -3022 l-3 -3014 -1250 0 -1250 0 -5 3010 c-3 1689 -1 3015 4 3022 6 10 144 13 610 15 842 4 1880 -2 1889 -11z m-3136 -3 c8 -13 5 -6017 -3 -6030 -3 -4 -138 -6 -302 -5 l-297 2 -5 235 c-8 372 -12 5795 -4 5803 4 4 141 7 305 7 227 0 300 -3 306 -12z m4401 -3010 l-3 -3023 -314 -3 c-223 -2 -318 1 -327 9 -12 10 -14 485 -14 3019 0 1653 3 3010 7 3013 3 4 152 7 330 7 l323 0 -2 -3022z m457 -3202 c37 -2 125 -25 230 -59 94 -30 359 -117 589 -192 231 -75 510 -165 620 -200 111 -35 219 -72 241 -81 38 -16 39 -17 15 -23 -14 -3 -2144 -4 -4735 -1 -3721 4 -4704 8 -4680 17 17 7 221 71 455 143 234 72 614 191 845 263 l420 132 1305 5 c1357 5 4590 2 4695 -4z m311 -1138 c69 -25 137 -87 170 -153 36 -74 38 -200 4 -288 -42 -110 -158 -200 -280 -217 -230 -32 -392 108 -394 340 0 103 21 157 95 236 99 104 258 136 405 82z m-7563 6 c26 -9 52 -25 58 -35 11 -22 2 -106 -13 -115 -15 -10 -33 14 -33 44 0 39 -54 72 -117 72 -91 0 -148 -50 -148 -130 0 -65 25 -87 126 -106 183 -34 216 -54 228 -140 9 -67 -7 -113 -58 -167 -79 -82 -169 -110 -281 -87 -81 17 -105 43 -105 114 0 30 5 58 10 61 16 10 40 -14 40 -39 0 -26 33 -60 73 -75 40 -16 113 -14 146 4 68 35 106 117 79 172 -17 36 -53 53 -141 65 -133 18 -194 64 -204 153 -19 159 161 270 340 209z m681 1 c92 -21 99 -25 86 -40 -6 -8 -14 -39 -17 -70 -5 -44 -9 -55 -22 -53 -10 2 -17 15 -19 35 -7 71 -76 100 -213 91 -102 -8 -183 -67 -214 -157 -23 -67 -20 -195 5 -247 44 -89 126 -148 232 -165 60 -10 81 -6 236 37 37 10 27 -23 -15 -50 -127 -82 -356 -62 -474 42 -20 17 -51 60 -70 94 -31 59 -34 69 -34 158 0 79 4 103 23 141 41 83 132 160 219 184 66 18 198 18 277 0z m1342 -1 c78 -22 145 -80 183 -155 27 -53 31 -73 31 -139 0 -131 -45 -229 -137 -299 -63 -49 -86 -59 -157 -72 -112 -19 -238 17 -309 88 -90 90 -121 268 -67 390 40 90 117 162 204 189 57 18 188 17 252 -2z m2099 -4 c38 -19 54 -54 48 -103 -5 -32 -9 -38 -27 -35 -16 2 -21 10 -21 32 0 43 -52 76 -117 76 -117 0 -189 -90 -143 -179 15 -30 83 -61 135 -61 54 0 145 -31 173 -59 86 -85 27 -251 -111 -314 -64 -29 -190 -30 -247 -2 l-40 20 0 70 c0 57 3 70 17 73 16 3 20 -4 32 -60 12 -54 148 -89 214 -54 44 23 73 61 79 104 12 88 -18 116 -143 133 -132 17 -189 59 -205 149 -15 81 50 184 137 216 49 18 177 14 219 -6z m-3040 -10 c0 -8 -16 -19 -38 -25 -22 -6 -42 -17 -47 -25 -4 -8 -7 -112 -6 -230 1 -204 2 -217 23 -246 26 -37 77 -54 161 -54 79 0 131 21 161 66 23 34 25 45 29 202 2 92 0 192 -5 222 -8 53 -10 55 -48 65 -47 14 -56 31 -18 38 49 10 203 5 210 -6 8 -13 -25 -37 -53 -37 -12 0 -24 -5 -26 -12 -2 -6 -3 -83 -1 -170 6 -267 -17 -352 -112 -405 -115 -64 -310 -45 -379 38 -37 43 -46 111 -46 338 0 229 2 221 -61 221 -31 0 -36 9 -17 28 7 7 54 10 142 9 108 -2 131 -5 131 -17z m1470 0 c0 -8 -16 -18 -40 -24 -22 -5 -43 -14 -47 -20 -4 -6 -8 -129 -8 -273 l0 -263 93 -2 c163 -3 184 1 193 40 11 51 23 72 44 72 24 0 25 -9 5 -83 -8 -32 -15 -60 -15 -62 0 -13 69 -2 97 15 35 21 65 74 138 243 85 197 165 362 180 372 12 8 19 5 28 -10 16 -27 96 -212 159 -365 73 -182 92 -214 134 -239 56 -34 33 -42 -107 -39 -126 3 -154 13 -91 34 54 17 56 25 27 95 -15 35 -34 70 -43 77 -17 13 -174 17 -230 6 -26 -5 -34 -15 -51 -58 -36 -94 -36 -93 5 -113 81 -39 63 -41 -330 -42 -264 -1 -377 2 -382 10 -3 6 5 21 20 33 l26 21 1 262 c0 144 -2 267 -5 272 -3 5 -21 12 -41 15 -19 4 -37 11 -40 16 -16 25 12 30 143 28 112 -2 137 -6 137 -18z m1970 0 c0 -8 -16 -19 -38 -25 -21 -6 -42 -17 -46 -24 -14 -22 -8 -443 7 -468 20 -36 71 -56 153 -61 99 -6 156 17 185 74 17 34 19 63 20 244 1 113 -2 210 -7 216 -6 7 -25 15 -44 18 -37 7 -48 31 -17 39 27 7 560 8 626 1 52 -6 64 -11 101 -48 70 -70 70 -137 -2 -216 -53 -59 -108 -82 -183 -78 -41 2 -56 7 -58 19 -2 13 10 18 59 23 49 6 68 13 90 35 34 34 46 90 30 143 -10 32 -20 43 -54 59 -48 21 -125 25 -150 7 -16 -12 -17 -38 -15 -277 l3 -264 40 -11 c23 -7 40 -18 40 -26 0 -12 -25 -15 -137 -18 -117 -2 -138 0 -138 12 0 9 16 20 40 26 l40 11 -2 275 -3 276 -40 14 c-39 13 -86 11 -132 -7 -18 -6 -23 -16 -23 -41 0 -370 -8 -446 -58 -501 -56 -63 -164 -92 -281 -76 -85 12 -140 43 -170 98 -22 41 -24 55 -30 279 l-6 236 -37 9 c-37 9 -50 30 -25 40 6 3 68 5 137 4 102 -2 125 -5 125 -17z m1523 -43 c3 -61 -9 -90 -34 -80 -8 3 -14 16 -14 28 0 38 -26 55 -83 56 -91 2 -162 -2 -170 -10 -4 -4 -6 -55 -5 -112 l3 -104 45 -6 c25 -3 67 -3 94 0 45 6 50 9 61 41 6 19 16 35 21 35 5 0 10 -46 12 -102 3 -98 2 -103 -17 -103 -14 0 -23 9 -27 26 -8 31 -31 40 -107 43 -95 3 -92 7 -92 -119 0 -87 3 -113 15 -120 8 -6 69 -9 135 -8 l119 3 11 42 c12 50 30 72 46 56 7 -7 7 -35 2 -84 l-8 -74 -226 -5 c-124 -3 -233 -4 -243 -2 -26 5 -19 29 14 42 17 7 30 13 31 14 5 8 9 478 5 510 -7 42 -9 44 -46 50 -39 6 -54 28 -27 39 6 3 118 5 247 4 l235 -2 3 -58z m482 52 c58 -12 94 -48 110 -110 20 -72 -16 -130 -117 -193 -24 -14 -43 -28 -43 -31 0 -6 93 -124 163 -207 l59 -69 61 3 62 3 8 260 c4 143 6 269 3 280 -4 14 -19 24 -51 33 -25 6 -45 16 -45 22 0 16 39 20 165 18 98 -3 120 -6 120 -18 0 -8 -17 -19 -40 -26 l-40 -11 0 -273 0 -273 30 -10 c38 -12 56 -27 49 -38 -7 -12 -386 -11 -418 1 -15 5 -64 61 -117 132 -51 68 -105 140 -122 160 -33 41 -29 58 12 58 56 0 93 13 127 45 31 29 34 38 34 88 0 62 -12 81 -67 103 -41 17 -124 18 -146 2 -16 -12 -17 -38 -15 -278 l3 -264 43 -16 c24 -8 43 -19 43 -25 -1 -6 -56 -11 -137 -13 -122 -2 -135 -1 -132 14 2 9 19 22 38 28 l35 11 3 255 c1 140 0 265 -3 277 -4 16 -15 24 -40 29 -40 7 -54 22 -34 35 20 12 340 11 399 -2z m1715 -9 c47 -24 75 -74 75 -136 0 -48 -4 -59 -36 -93 -19 -22 -55 -49 -80 -61 -24 -12 -44 -25 -44 -30 0 -7 35 -54 157 -207 32 -40 68 -76 79 -79 12 -3 41 -2 65 3 l44 9 7 64 c8 73 9 465 1 485 -2 8 -22 17 -44 20 -30 5 -39 11 -37 23 3 15 28 17 248 17 l245 0 -1 -63 c-1 -43 -6 -67 -15 -73 -23 -14 -26 -11 -35 34 l-9 42 -86 9 c-47 5 -103 6 -123 2 l-36 -7 0 -114 0 -113 39 -7 c22 -4 65 -3 96 0 52 7 58 10 73 41 15 32 38 42 36 16 -1 -7 -2 -53 -2 -103 -2 -97 -13 -111 -41 -53 -20 41 -27 44 -117 44 l-81 0 -6 -117 c-3 -65 -2 -122 2 -126 4 -4 66 -6 136 -5 l129 3 8 39 c11 51 26 70 44 55 15 -13 9 -125 -9 -147 -8 -10 -75 -12 -301 -12 -160 1 -306 4 -324 7 -26 4 -44 20 -90 81 -31 41 -87 113 -124 161 -37 47 -68 92 -68 99 0 7 13 12 34 12 61 0 97 12 132 45 31 29 34 38 34 89 0 48 -4 59 -26 79 -31 27 -55 35 -117 36 -87 2 -84 11 -92 -237 -4 -121 -4 -242 0 -270 7 -50 8 -52 43 -58 42 -7 65 -22 56 -35 -6 -10 -267 -12 -277 -2 -11 11 14 33 37 33 44 0 46 10 46 286 0 282 2 270 -54 289 -34 12 -45 32 -19 37 9 1 103 3 208 3 149 0 196 -3 220 -15z m-6990 -881 c96 -25 108 -40 101 -119 -3 -29 -7 -35 -27 -35 -18 0 -25 7 -30 35 -8 39 -27 56 -80 72 -52 15 -105 2 -147 -37 -34 -30 -36 -37 -37 -91 0 -54 2 -59 32 -80 19 -12 69 -28 123 -38 160 -29 194 -53 206 -140 8 -59 -10 -110 -59 -163 -83 -90 -176 -119 -297 -93 -73 16 -92 35 -97 103 -7 88 40 121 53 37 7 -44 24 -62 73 -79 118 -39 231 30 231 141 0 66 -25 85 -137 103 -107 17 -140 28 -171 58 -125 116 -6 335 183 337 22 0 58 -5 80 -11z m-1236 -9 c115 -12 163 -33 219 -94 61 -66 76 -106 76 -201 -1 -138 -55 -243 -163 -316 -74 -50 -125 -59 -321 -59 -182 0 -201 5 -158 45 l25 23 7 266 c4 146 5 270 1 275 -3 6 -24 15 -45 21 -23 6 -40 17 -40 25 0 11 24 15 118 18 64 1 133 4 152 5 19 1 77 -3 129 -8z m1871 -1 c248 1 411 -2 414 -8 8 -12 -9 -23 -54 -36 l-35 -11 -7 -149 c-9 -183 2 -317 29 -353 25 -33 74 -50 148 -51 114 -2 172 33 194 114 6 22 11 126 11 236 0 205 -3 219 -45 219 -25 0 -62 25 -49 33 5 3 162 7 349 8 393 4 428 -1 511 -74 70 -61 94 -118 94 -221 0 -140 -51 -243 -154 -311 -80 -54 -135 -65 -328 -65 -180 0 -202 6 -155 45 l27 21 0 271 c0 205 -3 273 -13 281 -39 32 -149 25 -169 -11 -8 -15 -13 -89 -14 -228 -2 -223 -9 -265 -53 -312 -45 -49 -98 -70 -190 -75 -108 -6 -182 10 -228 51 -64 57 -68 74 -68 337 l0 235 -50 17 c-27 9 -53 17 -57 17 -4 1 -8 -27 -10 -61 -3 -56 -5 -63 -25 -66 -19 -3 -22 2 -25 40 l-3 43 -85 0 -85 0 -3 -264 c-1 -176 1 -268 8 -275 6 -6 28 -16 48 -21 21 -6 37 -17 37 -25 0 -13 -23 -15 -139 -15 -99 0 -140 3 -143 12 -3 7 13 16 36 23 22 6 42 14 45 19 7 11 9 541 3 547 -11 12 -114 15 -139 5 -21 -8 -28 -17 -28 -38 0 -37 -14 -57 -34 -50 -13 5 -16 21 -16 76 0 66 9 87 33 73 5 -2 193 -4 417 -3z m2545 -55 c17 -32 61 -131 99 -219 124 -290 137 -314 178 -346 21 -17 38 -35 38 -39 0 -5 -60 -8 -132 -7 -118 2 -133 4 -136 20 -3 13 3 17 25 17 16 0 37 6 46 13 16 11 16 16 -9 77 -14 36 -31 71 -36 78 -12 13 -244 18 -265 4 -17 -11 -66 -129 -60 -146 3 -8 21 -17 39 -21 34 -8 51 -23 42 -37 -8 -12 -234 -10 -234 2 0 6 16 20 36 32 25 15 45 40 70 90 33 66 195 431 218 493 27 73 40 71 81 -11z m895 49 c0 -8 -11 -24 -24 -36 -26 -25 -48 -65 -99 -187 -20 -47 -65 -155 -101 -241 -36 -86 -66 -163 -66 -171 0 -21 -24 -40 -43 -32 -16 6 -49 78 -137 294 -123 301 -132 319 -167 341 -18 11 -33 25 -33 30 0 5 60 9 136 9 120 0 135 -2 130 -16 -3 -9 -6 -18 -6 -20 0 -2 -10 -4 -22 -4 -13 0 -30 -4 -38 -10 -17 -10 -14 -19 87 -280 63 -162 77 -190 88 -178 12 12 165 419 165 438 0 14 -9 21 -35 26 -36 6 -61 27 -51 42 3 5 53 9 111 9 83 0 105 -3 105 -14z m326 -40 c15 -32 74 -166 130 -298 91 -210 109 -244 144 -275 22 -19 40 -39 40 -43 0 -4 -57 -6 -127 -5 -106 3 -128 6 -128 18 0 9 15 19 38 24 20 5 37 15 37 21 0 7 -13 43 -28 81 l-29 69 -134 0 -134 0 -33 -65 c-18 -35 -31 -71 -30 -79 2 -8 21 -19 43 -25 24 -7 41 -19 43 -29 3 -15 -8 -17 -112 -17 -63 0 -118 4 -121 10 -3 5 13 21 35 35 32 20 48 41 72 93 17 37 66 146 110 242 44 96 92 203 106 238 14 34 31 62 38 62 7 0 25 -26 40 -57z m1088 44 c17 -13 17 -14 1 -30 -9 -9 -27 -17 -41 -17 -18 0 -24 -5 -24 -22 1 -203 -11 -593 -18 -600 -19 -19 -64 15 -149 114 -48 57 -104 123 -123 148 -78 101 -233 280 -243 280 -10 0 -3 -462 8 -480 3 -5 24 -14 46 -20 23 -7 39 -16 36 -23 -4 -14 -234 -21 -242 -7 -2 4 18 17 45 28 l50 21 0 273 0 274 -42 19 c-70 33 -61 45 34 45 72 0 87 -3 109 -23 14 -12 104 -116 200 -231 96 -115 186 -223 201 -240 l27 -31 -2 235 -2 235 -37 9 c-21 5 -38 13 -38 18 0 4 0 11 0 16 0 4 37 10 82 13 46 3 88 6 94 7 5 1 18 -4 28 -11z m639 -3 c25 -9 22 -17 -31 -81 -26 -32 -120 -150 -209 -263 -88 -113 -170 -213 -182 -224 -11 -10 -18 -23 -15 -27 7 -12 381 -12 388 0 3 4 8 27 11 51 6 49 11 60 30 60 20 0 23 -20 14 -75 -4 -28 -8 -58 -8 -67 -1 -27 47 -22 94 10 42 29 58 61 211 407 14 33 35 78 46 100 11 22 26 58 33 80 21 67 43 54 88 -50 234 -541 220 -511 261 -536 66 -39 49 -49 -83 -49 -66 0 -126 3 -135 6 -21 8 -8 34 18 34 12 0 30 6 40 13 18 13 17 17 -10 86 -20 50 -34 73 -48 77 -12 3 -73 3 -136 2 l-115 -3 -32 -60 c-42 -77 -40 -96 12 -111 22 -6 40 -17 40 -25 0 -20 -831 -26 -859 -6 -16 12 -12 19 49 92 37 44 128 159 202 255 75 96 149 190 165 208 16 18 26 37 23 43 -7 10 -186 10 -280 0 l-60 -6 -5 -40 c-4 -32 -9 -41 -28 -43 -22 -3 -22 -2 -16 70 4 40 12 77 18 81 12 10 483 1 509 -9z m-6723 -1 c-1 -19 -18 -32 -52 -38 -34 -7 -38 -10 -43 -49 -4 -23 -4 -140 -1 -261 3 -121 6 -230 6 -241 0 -17 8 -23 38 -29 41 -8 65 -23 56 -36 -6 -10 -277 -12 -287 -2 -10 9 13 33 32 33 45 0 49 17 52 185 2 88 2 213 1 277 l-2 116 -32 7 c-35 8 -58 22 -58 36 0 5 65 9 145 9 80 0 145 -3 145 -7z m3134 -2 c8 -12 -14 -28 -51 -36 -18 -3 -34 -14 -36 -23 -3 -9 -5 -135 -5 -280 -1 -294 -7 -270 71 -287 16 -3 27 -11 24 -18 -2 -8 -45 -13 -146 -15 -129 -2 -142 -1 -139 14 2 10 19 22 43 28 l40 12 0 278 c0 303 3 288 -57 301 -16 3 -28 12 -28 20 0 13 23 15 139 15 77 0 142 -4 145 -9z m5194 -8 c-2 -12 -16 -20 -41 -24 -20 -3 -40 -9 -43 -12 -8 -7 -12 -544 -5 -556 3 -4 24 -12 46 -17 24 -6 40 -16 40 -24 0 -12 -24 -15 -137 -15 -156 0 -179 12 -85 45 l27 10 0 279 c0 303 2 291 -56 291 -14 0 -34 4 -44 10 -15 8 -20 6 -25 -11 -4 -11 -4 -35 -1 -52 3 -18 1 -39 -4 -47 -15 -24 -44 1 -48 42 -3 32 -7 36 -38 41 -19 3 -57 3 -85 0 l-49 -6 2 -276 3 -276 40 -10 c42 -10 60 -24 46 -38 -11 -11 -270 -4 -274 7 -2 10 15 22 56 36 l27 10 0 274 0 274 -22 6 c-35 9 -104 7 -132 -4 -22 -8 -26 -16 -26 -50 0 -35 -3 -40 -24 -40 -22 0 -23 4 -25 65 -1 36 1 70 4 75 4 6 174 10 441 10 408 0 435 -1 432 -17z" fill="#902b3c"/>
<path d="M9045 2655 c-97 -34 -153 -146 -142 -285 7 -93 26 -138 79 -196 59 -64 90 -78 173 -78 161 0 244 107 233 298 -9 141 -62 225 -165 262 -49 17 -128 17 -178 -1z" fill="#902b3c"/>
<path d="M3529 2657 c-60 -23 -96 -54 -123 -109 -22 -44 -26 -65 -26 -138 0 -108 19 -174 66 -228 95 -112 247 -122 345 -23 56 56 72 104 71 216 0 129 -49 227 -135 272 -42 21 -152 27 -198 10z" fill="#902b3c"/>
<path d="M4851 2443 c-24 -54 -45 -104 -48 -110 -4 -10 19 -13 96 -13 70 0 101 4 101 12 0 6 -16 56 -36 110 -47 129 -57 129 -113 1z" fill="#902b3c"/>
<path d="M1540 1724 c-6 -16 -9 -129 -8 -278 l3 -251 105 -3 c98 -2 109 -1 160 25 95 48 140 134 140 267 0 179 -98 266 -301 266 -87 0 -90 -1 -99 -26z" fill="#902b3c"/>
<path d="M4681 1736 c-8 -9 -11 -91 -9 -277 l3 -264 115 0 c99 0 121 4 157 22 85 46 127 129 127 253 -1 200 -83 280 -290 280 -65 0 -95 -4 -103 -14z" fill="#902b3c"/>
<path d="M6058 1563 c-50 -111 -61 -140 -53 -152 10 -17 195 -14 195 2 0 16 -66 180 -83 208 -6 10 -15 19 -18 19 -3 0 -22 -35 -41 -77z" fill="#902b3c"/>
<path d="M7278 1553 c-58 -125 -61 -140 -35 -147 35 -9 187 -7 187 3 0 5 -8 28 -18 52 -11 24 -31 74 -47 112 -15 37 -32 67 -37 67 -5 0 -28 -39 -50 -87z" fill="#902b3c"/>
<path d="M9487 1619 c-18 -28 -87 -193 -87 -208 0 -7 38 -11 106 -11 97 0 106 2 100 18 -35 96 -73 185 -87 203 l-16 22 -16 -24z" fill="#902b3c"/>
</g>
</svg>