<?xml version="1.0" encoding="UTF-8"?>
<svg id="Layer_1" xmlns="http://www.w3.org/2000/svg" viewBox="0 0 600 287.5">
  <defs>
    <style>
      .cls-1, .cls-2 {
        fill-rule: evenodd;
      }

      .cls-1, .cls-3 {
        fill: #822433;
      }

      .cls-2 {
        fill: #fff;
      }
    </style>
  </defs>
  <g>
    <path class="cls-1" d="M158.99,138.68c0,43.59-29.54,79.02-65.86,79.02-36.32,0-65.85-35.44-65.85-79.02S56.8,59.65,93.13,59.65s65.86,35.45,65.86,79.03"/>
    <path class="cls-2" d="M94.38,84.95c0,2.48.01,8.85,0,11.15,0,1.03.39,1.77.87,2.3.29.3.54.49.79.64.09.08.48.23.62.23.2.03.46.06.79.04.79-.06,1.58-.33,2.28-1.1,1.51-1.64,4.7-5.06,6.06-6.52.4-.43-.02-.5-.36-.49-2.8.08-5.79,2.75-7.82,4.57-.25-2.75-.67-8.87-2.7-11.2-.24-.26-.53-.25-.53.38M91.81,84.58c-2.04,2.32-2.4,8.45-2.64,11.2-2.04-1.83-5.04-4.49-7.83-4.57-.34-.01-.78.06-.38.49,1.36,1.47,4.55,4.88,6.07,6.52.71.77,1.49,1.04,2.21,1.09.4.03.65,0,.86-.03.14,0,.53-.15.63-.23.26-.15.5-.34.74-.58.54-.59.93-1.33.92-2.36,0-2.3,0-8.67,0-11.15,0-.62-.36-.64-.58-.38M68.09,141.66c.18-2.1-1.24-3.9-3.23-4.29-.27-.02-.54-.04-.8-.08-8.64-.83-17.19-3.3-25.12-7.48-.18-.11-.35.09-.26.27.49.94,1.91,2.03,4.07,3.56,2.46,1.76,10.51,5.65,17.35,7,2.63.52,5.3.86,7.99,1.01M74.6,151.65c.11-.77-.04-1.79-.42-2.71-.15-.68-.63-1.3-1.25-1.79-1-.8-2.28-1.27-3.27-1.3-8.91-.5-17.58-3.62-25.29-9.03-.39-.27-.53-.09-.23.29,1.35,1.64,2.67,3.38,4.39,4.72,5.21,4.07,11.28,6.5,17.45,7.59,1.32.24,2.67.41,4.01.52.3.01.5,0,.55.09.06.08.06.31-.02.59-.11,1.3-.18,2.63-.18,3.96,0,6.14,1.38,12.4,4.54,18.15,1.04,1.89,2.56,3.48,3.98,5.06.32.36.51.25.31-.16-4.07-8.39-5.66-17.29-4.57-25.96M82.18,158.57c.02-.26.04-.53.05-.79-.03-1.99-1.58-3.68-3.65-3.88h-.08c-.32,2.61-.46,5.24-.39,7.89.13,6.82,2.75,15.26,4.08,17.95,1.16,2.35,2,3.91,2.86,4.54.17.13.38,0,.32-.19-2.79-8.39-3.89-17.04-3.18-25.51M90.67,160.62s.11-1,.12-1.01c.5-3.17-.6-6.35-2.58-8.6-3.27-3.72-8.71-4.03-10.88-6.39-2.14-2.37-1.31-8.35-4.6-11.79-2.07-2.17-5-3.54-8.27-3.62l-.91-.04c-9.39-.11-18-1.86-26.92-5.46-.31-.12-.68.16-.43.51.82,1.09,2.55,2.66,5.59,3.94,9.51,4.03,22.44,4.98,22.48,4.98,5.5.27,7.91,5.13,9.17,9.35.43,1.44,1.07,2.79,1.82,3.65.72.87,1.94,1.89,3.36,2.59,4.02,1.96,8.89,5.01,8.18,10.37,0,.02-1.75,12.65.6,22.52.76,3.17,1.88,5.11,2.84,6.08.31.31.65,0,.58-.32-2.01-9.22-1.72-17.72-.15-26.77M64.73,122.56c-1.22.28-3.99.99-5.81,1.74-.29.12-.36.64.01.79,2.04.81,6.7,1.33,8.21.72,2.21-.86,1.72-4.5.58-6.05-5.03-7.15-7.88-15.71-8.35-24.99-.02-.46-.24-.46-.34,0-.47,2.06-1.02,4.15-1.02,6.3,0,7.95,2.63,15.34,6.72,21.49M65.95,109.21c1.2,2.35,2.56,4.6,4.07,6.75,1.76-1.17,2.31-3.38,1.4-5.15-.15-.22-.29-.44-.44-.66-4.61-7.12-7.88-15.21-9.44-23.88-.04-.2-.28-.22-.37-.02-.44.94-.43,2.72-.31,5.31.13,3,1.99,11.59,5.09,17.65M74.35,107.72c3.14,4.38.8,9.24-1.72,12.85-3.09,4.38.71,9.93.52,6.68-.26-4.78,5.78-7.59,6.59-13.25.42-2.94-.27-6.04-2.21-8.59l-.51-.71c-5.63-7.26-9.51-14.95-12.14-24.02-.09-.31-.54-.42-.66,0-.35,1.29-.51,3.59.32,6.73,2.66,9.78,9.79,20.28,9.8,20.3M119.07,119.77c-1.14,1.54-1.63,5.18.58,6.05,1.51.6,6.18.08,8.21-.72.38-.15.31-.67,0-.79-1.8-.76-4.58-1.46-5.81-1.74,4.1-6.15,6.73-13.54,6.73-21.49,0-2.15-.55-4.24-1.02-6.3-.11-.46-.32-.46-.35,0-.47,9.28-3.31,17.84-8.35,24.99M115.38,110.81c-.92,1.77-.38,3.98,1.33,5.11,1.57-2.12,2.93-4.37,4.13-6.72,3.12-6.07,4.97-14.66,5.1-17.65.12-2.59.13-4.37-.31-5.31-.09-.19-.33-.18-.36.02-1.57,8.67-4.83,16.76-9.45,23.88l-.43.66ZM113.63,127.26c-.18,3.24,3.63-2.31.53-6.68-2.53-3.61-4.86-8.47-1.72-12.85.02-.02,7.16-10.52,9.8-20.3.85-3.14.69-5.43.32-6.73-.11-.42-.56-.31-.65,0-2.64,9.06-6.5,16.76-12.16,24.02,0,0-.5.71-.51.71-1.94,2.55-2.63,5.65-2.21,8.59.81,5.66,6.85,8.47,6.59,13.25M93.13,212.56c-33.77,0-61.24-33.15-61.24-73.87s27.47-73.86,61.24-73.86,61.24,33.14,61.24,73.86c0,40.72-27.47,73.87-61.24,73.87M93.13,62.56c-34.99,0-63.44,34.15-63.44,76.12s28.46,76.12,63.44,76.12,63.44-34.15,63.44-76.12-28.45-76.12-63.44-76.12M80.94,138.17c-1.61,0-2.99-1.38-3.26-1.96-.8,3.72,1.24,5.47,4.22,6.01-.51-1.2-.84-2.47-.96-3.75v-.29h0ZM81.02,135.29c.07-1.16.09-2.57.13-3.67-2.67-.3-4.37-2.33-4.72-2.83-1.63,2.62.23,5.9,4.6,6.5M105.6,138.41c-.11,1.27-.44,2.54-.96,3.74,2.98-.54,4.88-2.29,4.11-6.01-.28.59-1.53,1.96-3.14,1.96v.31h0ZM110.12,128.73c-.36.49-2.05,2.52-4.72,2.81.04,1.09.06,2.53.13,3.68,4.36-.6,6.23-3.88,4.59-6.49M96.45,122.16c8.84,5.08,12.08.4,12.08.4,0,0,3.23,3.86-2.33,5.35-5.88,1.58-9.85-2-10.8-2.69-1.75-1.29-2.12-4.88,1.05-3.06M101.19,117.56c3.39,2.06,4.52,2.12,4.52,2.12,0,0-.12,3.54-5.18,1.6-1.78-.69-7.2-3.73-6.28-5,1.53-2.13,4.19-.41,6.94,1.28M90.1,122.16c-8.84,5.08-11.94.4-11.94.4,0,0-3.36,3.86,2.2,5.35,5.88,1.58,9.85-2,10.8-2.69,1.75-1.29,2.12-4.88-1.05-3.06M85.36,117.56c-3.39,2.06-4.39,2.12-4.39,2.12,0,0-.02,3.54,5.04,1.6,1.78-.69,7.19-3.73,6.28-5-1.54-2.13-4.2-.41-6.94,1.28M103.48,136.92c-.15-1.51-.35-4.23-.4-5.67-4.16,0-8.57-3.18-9.8-5.16-1.23,1.99-5.65,5.16-9.81,5.16-.06,1.44-.25,4.16-.41,5.67-.28,2.76.7,5.62,2.53,7.67.95,1.07,2.13,2.1,3.44,2.7.11.04.24.09.36.15l.63.27c.35.18.56.46.89.7.97.7,2.33.66,2.36.66.04,0,1.4.04,2.37-.66.34-.25.54-.52.9-.7l.62-.27c.13-.06.25-.1.36-.15,1.31-.6,2.48-1.63,3.43-2.7,1.83-2.05,2.81-4.91,2.52-7.67M98.14,135.8c-2.37,0-2.87-.71-2.87-.71,0,0,.6-1.99,2.87-1.99s3.1,1.66,3.1,1.66c-.07.25.13,1.04-3.1,1.04M93.33,144.87c-1.99,0-3.61-1.65-3.61-2.13s7.23-.48,7.23,0c0,.48-1.62,2.13-3.62,2.13M88.41,135.8c-3.22,0-3.02-.79-3.1-1.04,0,0,.85-1.66,3.11-1.66s2.88,1.99,2.88,1.99c0,0-.51.71-2.89.71M93.33,138.84c1.04,0,1.87.43,1.87.78s-.83.79-1.87.79-1.86-.43-1.86-.79.83-.78,1.86-.78M126.72,140.65c6.82-1.35,14.88-5.24,17.34-7,2.16-1.53,3.58-2.62,4.04-3.56.09-.18-.07-.38-.25-.27-7.93,4.17-16.47,6.65-25.11,7.48-.27.03-.54.06-.8.08-2,.39-3.42,2.19-3.23,4.29,2.68-.15,5.35-.49,8-1.01M107.63,177.61c-.2.41,0,.52.31.16,1.42-1.58,2.94-3.17,3.98-5.06,3.16-5.75,4.54-12.01,4.54-18.15,0-1.32-.07-2.65-.18-3.96-.07-.29-.07-.51-.02-.59.05-.09.24-.08.55-.09,1.34-.11,2.68-.28,4.01-.52,6.17-1.09,12.23-3.52,17.45-7.59,1.72-1.34,3.04-3.07,4.38-4.72.3-.38.17-.56-.21-.29-7.72,5.41-16.39,8.53-25.29,9.03-.98.03-2.26.51-3.26,1.3-.63.49-1.1,1.11-1.25,1.79-.38.92-.53,1.94-.42,2.71,1.09,8.67-.5,17.57-4.57,25.96M101.44,184.08c-.07.19.14.32.31.19.87-.63,1.7-2.19,2.86-4.54,1.33-2.69,3.94-11.13,4.07-17.95.07-2.64-.07-5.28-.39-7.89h-.08c-2.08.19-3.64,1.89-3.66,3.88.02.25.04.53.06.79.7,8.48-.4,17.13-3.18,25.51M95.98,187.39c-.07.32.28.63.58.32.95-.97,2.08-2.91,2.83-6.08,2.36-9.87.62-22.5.62-22.52-.72-5.35,4.15-8.41,8.18-10.37,1.42-.69,2.64-1.71,3.36-2.59.74-.86,1.39-2.21,1.81-3.65,1.26-4.22,3.67-9.07,9.17-9.35.03,0,12.97-.95,22.47-4.98,3.04-1.28,4.78-2.85,5.59-3.94.24-.35-.13-.64-.43-.51-8.92,3.6-17.54,5.34-26.93,5.46l-.9.04c-3.28.08-6.19,1.45-8.27,3.62-3.29,3.44-2.45,9.42-4.6,11.79-2.16,2.36-7.61,2.67-10.88,6.39-1.97,2.24-3.08,5.43-2.58,8.6,0,.01.13,1,.13,1.01,1.57,9.05,1.86,17.55-.16,26.77M133.92,182.52c-.12-.11-.25-.09-.35-.07-.34.07-.76.1-1.1.06-1.58-.21-3.02-.31-4.61-.5.31-.97.36-2.7-.9-3.86-1.28-1.17-2.97-.56-4.03.66-.45.53-.86,1.11-1.32,1.66-.26.31-.86.92-1.09,1.12-.18.15-.4.3-.54.48-.18.2-.24.43-.02.64.24.21.42.07.69-.24.46-.47.54-.4.96-.01l7.02,6.45,1.06-1.56-3.2-2.94.14-.17c.2-.23.3-.34.42-.58l3.55.39c1.16.15,2.05.43,2.96-.63.24-.27.48-.78.36-.89M125.89,179.83c.86.77,1.81,2,.34,3.7-.14.15-.21.25-.32.34l-3.31-3.04c-.12-.11-.17-.22,0-.42l.36-.42c1.11-1.28,1.97-1.04,2.93-.16M41.85,162.48c-.25-.73-.45-2-.13-3.28l1.11.09c-.39,1.03-.34,2.31-.16,2.88.46,1.36,1.42,2.1,2.58,1.69.58-.21.75-.87.88-1.59.22-1.11.21-2.28.65-3.32.33-.83.84-1.59,2-2.01,1.61-.57,3.17.67,3.78,2.51.2.61.35,1.42.5,2.46-.72.31-1.27.5-1.71.64-.22.09-.47.15-.58-.2-.07-.23-.04-.42.7-.85.31-.18.55-.75.19-1.84-.38-1.18-1.2-1.92-2.31-1.53-.76.27-.87,2.12-.94,2.84-.08.8-.18,1.7-.55,2.46-.34.69-.94,1.28-1.83,1.6-1.91.68-3.56-.63-4.2-2.55M57.44,172.37c-.09.03-.2,0-.57.05l-.21-.77-1.42-2.96-8.76,4.44-.97-1.6,8.93-4.54c-.39-.87-1.13-2.39-1.13-2.39-.43-.88-.54-.57-1.16-.39-.29.08-.58.12-.69-.09-.14-.32-.01-.44.27-.59.34-.18.78-.39,1.22-.59.51-.24.68,0,.84.41.2.45.38.85.65,1.5.83,1.93,1.78,3.83,2.68,5.72.17.35.42.67.64.97.06.1.13.17.16.25.04.09.13.38-.16.53-.15.07-.16.06-.31.05M64.12,182.01c-.17-.17-.44-.19-.75-.11l-9.85,2.78-.88-.94c2.13-3.82,3.49-6.33,5.31-9.44.15-.24.27-.36.1-.63-.33-.46-.29-.61-.11-.76.21-.17.46-.12.64.17.22.42.67,1.06.89,1.41.27.43.09.77-.13,1.14l-4.54,7.6,8.03-2.31c.51-.16-.51-1.11-.09-1.44.2-.16.4-.07.6.23.23.4.49.79.71,1.1.22.29.43.51.72.86.24.26.22.52.01.68-.13.1-.26.06-.67-.34M71.04,193.98c1.94-2.57,1.25-5.85-1.38-7.96-.65-.52-1.08-.84-1.47-1.12-.31-.23-.63-.45-.93-.7-.32-.25-.72-.61-.9-.84-.16-.17-.32-.39-.5-.53-.2-.16-.47-.17-.64.06-.2.26.04.44.31.68.49.44.4.52.07.98l-5.84,7.75c.87.6,1.41.95,2.13,1.68.32.33.59.64.8.8,3.01,2.41,6.27,2,8.36-.78M69.33,192.93c-1.68,2.23-3.81,3.13-6.08,1.3-.6-.47-1.03-.87-1.32-1.28-.18-.24-.16-.27.09-.61l5.08-6.73c.23-.31.37-.31.62-.09l1.11.89c2.85,2.27,1.98,4.53.5,6.52M77.15,192.07c-.24-.08-.31.2-.41.41l-4.17,8.5-1.7-.72,4.23-8.63c.29-.57.25-.45-.2-.79-.2-.16-.5-.29-.36-.57.13-.27.36-.32.67-.14.36.23,1,.61,1.32.77.32.18.88.42,1.29.59.31.14.41.36.29.64-.11.21-.37.13-.96-.06M89.58,195.37c-.26.04-.48.17-.66.44l-6.14,8.7-1.26-.17c-.64-4.36-1.11-7.06-1.58-10.67-.03-.26,0-.44-.3-.53-.54-.15-.59-.29-.54-.52.06-.26.29-.4.6-.27.43.17,1.17.37,1.55.51.46.17.53.55.59.96l1.08,8.74,4.86-6.99c.3-.44-1.07-.53-.95-1.06.07-.26.27-.31.6-.2.42.13,2.1.27,2.55.27.35.01.5.13.46.44-.03.22-.24.28-.84.35M104.13,193.33c-.62.29-.66.49-.44,1.32.26.99,2.4,9.1,2.4,9.1l-1.95.51-2.12-8.29-2.15,8.27-.89.3-4.88-7.24.56,8.27-1.7.49-.62-9.45c-.07-.96-.21-1.18-.78-1.22-.48-.04-.68-.17-.72-.43-.06-.4.28-.45.45-.46.46-.01,1.68.04,2.08.02.34-.01.53.03.8.43l5.02,7.66,2.28-8.74c.12-.43.39-.64.71-.72.41-.11,1.41-.49,1.85-.6.17-.04.58-.07.64.3.04.27-.15.33-.55.52M119.69,183.98c-.2.39-.14.93-.07,1.25l2.15,9.87-.97.85c-3.54-2.46-5.9-3.8-8.79-5.89-.21-.16-.33-.3-.58-.14-.47.29-.62.25-.74.06-.15-.23-.09-.49.2-.64.41-.21,1.07-.63,1.4-.83.44-.25.75-.04,1.1.2l7.07,4.95-1.87-8.31c-.11-.53-1.1.45-1.38.01-.14-.24-.04-.41.26-.6.52-.34,1.41-1.27,1.89-1.84.24-.26.52-.19.67.04.08.13-.09.5-.35,1.01M137.1,171.73c-1.49-.97-2.83-.38-3.86.7.09-1.1-.34-2.03-1.34-2.67-1.13-.73-2.82-.16-3.77,1.42-.32.52-.56,1.07-.88,1.6-.21.36-.6.92-.8,1.16-.16.18-.34.36-.46.57-.16.25-.09.52.13.67.2.11.29.07.6-.4.38-.56.47-.48.93-.18l.35.24,7.74,4.98s.66-1.28.82-1.53c.33-.51.66-.72,1-1.31,1.16-1.89,1.17-4.21-.46-5.25M131.22,171.55c.89.57,1.49,1.36.64,2.77l-.33.56-3.05-1.98c-.24-.16-.32-.2-.19-.42l.14-.25c.65-1.08,1.71-1.38,2.79-.68M136.27,173.42c1.07.68,1.48,1.83.8,2.97-.27.46-.63.9-.98,1.24-.11.11-.11.11-.2.05l-3.71-2.39.3-.5c1.19-1.96,2.53-2.19,3.79-1.37M132.52,164.31c-.07.25.21.33.4.42l8.5,4.08-.64,1.78-8.64-4.16c-.55-.26-.43-.24-.76.25-.14.21-.26.52-.53.39-.27-.12-.32-.36-.16-.68.22-.39.56-1.05.72-1.39.15-.35.37-.93.53-1.35.13-.34.34-.46.6-.32.2.1.14.38-.02.97M144.16,162.14c-.24.72-.8,1.86-1.81,2.68l-.82-.75c.91-.59,1.61-1.63,1.8-2.21.43-1.36.11-2.55-1.07-2.94-.58-.21-1.12.23-1.63.71-.83.75-1.49,1.69-2.46,2.26-.74.45-1.59.74-2.77.35-1.61-.55-2.14-2.5-1.56-4.36.2-.61.55-1.33,1.04-2.27.76.21,1.31.39,1.74.53.23.08.46.18.35.53-.08.23-.21.36-1.06.25-.36-.07-.88.24-1.23,1.34-.37,1.18-.15,2.29.95,2.65.78.27,1.94-1.15,2.4-1.67.53-.59,1.14-1.26,1.88-1.62.68-.35,1.51-.45,2.38-.16,1.93.65,2.49,2.72,1.87,4.66"/>
  </g>
  <g>
    <path class="cls-3" d="M280.08,98.79h-6.19l1.03,2.15c.65,1.31.75,2.24.18,3.44l-20.62,47.74,4.5-.66,8.54-20.94h19.88l8.82,21.78,6.29-.85-21.47-52.01c-.21-.46-.58-.66-.95-.66ZM268.54,128.12l9.28-21.59,8.54,21.59h-17.82Z"/>
    <path class="cls-3" d="M215.6,101.04c0-8.84,9.3-13.69,16.52-13.69s12.32,2.98,12.97,6.61c.75,4.47,1.02,4.66,1.58,4.66.65,0,.65-.19.65-1.4,0-2.88-.09-6.6-.27-10.25-4.79-.92-10.52-1.66-14.27-1.66-15.87,0-21.59,9.47-21.42,18.08.14,7.07,2.58,11.87,9.77,15.34,4.88,2.36,10.22,4.8,14.96,6.8,5.8,2.46,10.35,4.92,10.35,10.95,0,9.3-8.55,14.53-17.64,14.53-4.04,0-13.42-2.42-16.98-5.49l-1.32,2.69c5.05,3.44,13.98,4.85,18.3,4.85,11.52,0,22.31-6.89,22.31-18.61,0-22.34-35.52-17.22-35.52-33.41Z"/>
    <path class="cls-3" d="M326.84,99.23c-3.2,0-8.16.37-11.35.37-2.06,0-5.06-.19-6.57-.47-1.5-.28-2.61-.45-3.2-.45s-.92.27-.92.92c0,.47.1,1.11,1.77,1.2,4.32.19,4.51,1.22,4.51,4.92v46.49l6.18-.74v-47.05c0-2.4.39-2.86,2.64-2.86,12.48,0,16.22,4.8,16.22,13.35,0,6.79-3.1,12.19-12.19,12.19-2.06,0-4.03-1.11-4.41-1.11-.28,0-.57.55-.57.74,0,.93,3.1,2.61,5.45,2.61,10.79,0,17.91-6.6,17.91-16.19,0-8.81-8.34-13.91-15.46-13.91Z"/>
    <path class="cls-3" d="M547.44,152.53l6.28-.84-21.48-52.02c-.18-.47-.56-.65-.94-.65h-6.18l1.02,2.14c.67,1.31.76,2.23.2,3.45l-18.9,43.74c-7.77-.78-25.51-1.42-31.15-1.38l31.2-45.74-.47-1.68h-28.54c-6.18,0-7.04-.55-7.31-.55-.37,0-.55.37-.65.84l-.76,3.54c-.09.37.19.64.37.64.29,0,1.99-1.95,5.08-1.95h24.92l-32.21,47.23c-.28.27-.28.46-.28.84s.2.55.67.55c4.64-1.59,33.61-.29,41.91,1l8.64-21.11h19.7l8.9,21.96ZM529.06,106.74l8.51,21.44h-17.75l9.24-21.44Z"/>
    <path class="cls-3" d="M464.92,98.62c-1.22,0-4.97.74-6.48.74-1.6,0-5.91-.74-7.22-.74-.56,0-.94.28-.94.92,0,.47.1,1.13,1.78,1.21,4.31.19,4.49,1.21,4.49,4.94v36.66l-30.29-42.06c-.27-.38-.56-.66-.75-.94-2.36-.19-8.35-.37-11.55-.74-.55-.1-.85.28-.85.92,0,.47,0,1.13,1.7,1.21,4.32.19,4.5,1.21,4.5,4.94v46.52l2.9-.83v-44.95h.09l33.59,45.78,3.65-.74v-45.78c0-3.73.19-4.75,4.5-4.94,1.69-.08,1.79-.74,1.79-1.21,0-.64-.39-.92-.94-.92Z"/>
    <path class="cls-3" d="M407.29,142.73c-.46,0-1.12.18-1.77,3.72-.57,3.44-1.89,2.98-3.19,3.26-1.99.36-6.3.46-8.92.46s-4.22-.19-6.09-.46c-2.35-.38-2.44-1.04-2.44-4.1v-19.07h16.51l-.06-2.06h-16.45v-21.67c0-.93.56-1.31,1.96-1.31h9.85c.46,0,2.15,0,3,.19,1.31.27,2.63-.1,3.19,3.35.66,3.53,1.31,3.72,1.78,3.72.57,0,.57-.19.57-1.12,0-1.95-.1-4.38-.2-6.8-.09-1.86-.46-1.86-2.15-1.76-2.44.09-4.41.18-7.79.27-2.91.1-9.94.18-12.38.18-2.06,0-4.68-.18-6.19-.46-1.5-.29-2.62-.47-3.19-.47s-.93.37-.93,1.02c0,.46,0,1.03,1.68,1.11,4.31.19,4.6,1.21,4.6,4.94v46.52l5.17-.35c2.42,0,8.72.09,11.62.18,3.38.09,7.6.28,10.05.37,1.69.1,2.06,0,2.15-1.86.1-2.43.19-4.75.19-6.71,0-.92,0-1.11-.56-1.11Z"/>
    <path class="cls-3" d="M364.01,99.17c-2.26.19-5.26.37-7.04.37s-5.35-.18-7.61-.37c-.93-.09-1.11.19-1.11.74,0,.47.47,1.02,3.57,1.58,1.58.28,1.87,2.23,1.87,4.09v46.54l6.2-.57v-45.97c0-1.76.19-3.8,2.06-4.09,2.43-.38,3.2-1.12,3.2-1.58,0-.56-.2-.83-1.12-.74Z"/>
  </g>
  <path class="cls-3" d="M420.02,191.53c-1,0-3.08-.48-4.76-.37l-2.26.15v-18.62c0-1.42,0-1.71-1.59-1.78-.74-.04-.89-.19-.89-.48,0-.33.18-.52.55-.52.41,0,.9.11,1.3.19.6.11,1.68.18,2.45.18s1.49-.04,2.23-.07c.94-.04,1.98-.08,3.58-.08,6.31,0,10.99,4.09,10.99,10.26,0,6.6-4.34,11.13-11.59,11.13M419.8,171.21h-2.76c-.85,0-1.21.34-1.21,1.31v16.27c0,1.15.03,1.22.81,1.45.96.29,2.15.37,3.64.37,5.9,0,8.2-4.12,8.2-9.77,0-4.94-1.38-9.62-8.69-9.62"/>
  <path class="cls-3" d="M441.5,171.21c-.68.11-.68.86-.68,1.46v18.39l-2.82.22v-18.61c0-.63-.04-1.35-.6-1.46-1.19-.18-1.56-.22-1.56-.59,0-.34.16-.52.64-.49.89.08,2.3.15,3.01.15s1.9-.07,2.79-.15c.49-.03.64.15.64.49s-.49.45-1.42.59"/>
  <path class="cls-3" d="M475.25,191.76c-.15.15-1.11.22-1.75.11-1.38-.23-2.27-.52-3.24-1.98l-1.6-2.37-5.05-8.13c-.78.15-.96.22-2.53.22h-1v11.37l-2.98.41v-23.52c0-1.79-.04-2.16-2.08-2.27-.85-.04-1.03-.07-1.03-.45,0-.48.29-.56.62-.56s.9.12,1.64.22c.74.12,2.41.26,3.41.26,1.67,0,3.39-.22,5.05-.22,3.72,0,6.91,2.2,6.91,6.09s-2.86,6.95-5.17,7.69l4.61,7.54c1.34,2.16,2.08,3.6,4.09,5.02.26.19.29.41.07.59v-.04h0ZM462.69,165.82h-1.63c-.63,0-.95.48-.95,1.26v11.41c.59.07.85.12,1.59.12,5.86,0,6.76-4.17,6.76-7.11,0-3.45-1.38-5.68-5.77-5.68"/>
  <path class="cls-3" d="M488.67,191.53c-6.35,0-11.06-4.53-11.06-10.81,0-6.61,5.57-10.81,11.06-10.81s11.08,3.9,11.08,10.81c0,6.28-4.72,10.81-11.08,10.81M488.67,170.95c-4.46,0-7.95,3.27-7.95,9.73,0,5.69,2.67,9.82,7.95,9.82,5.69,0,7.95-4.13,7.95-9.82,0-6.61-3.87-9.73-7.95-9.73"/>
  <path class="cls-3" d="M529.99,170.91c-1.82.08-1.78.78-1.6,2.45.22,1.96,2.13,17.65,2.13,17.65l-3.16.3-1.86-17.28-6.95,16.01-1.3.23-7.84-16.31-1.33,17.05-2.68.33c1.64-21.37,1.45-17.84,1.53-18.68.14-1.35,0-1.68-1.61-1.75-.78-.04-.89-.33-.89-.58,0-.42.3-.45.6-.42.89.11,2.98.19,3.76.26.51.04.74.15,1.11.89l8.13,16.82,7.14-16.76c.29-.7.74-.93,1.26-.96.82-.07,2.86-.11,3.72-.23.34-.04.74.08.74.44,0,.27-.11.49-.89.53"/>
  <path class="cls-3" d="M551.23,191.35l-3.49-8.55h-7.65l-3.35,8.21-2.24.3,8.29-19.02c.19-.44.15-.71-.08-1.19l-.51-1.12h2.74c.23,0,.46.15.56.38l8.59,20.62-2.86.37ZM544.05,173.51l-3.38,8.18h6.5l-3.13-8.18Z"/>
  <path class="cls-3" d="M233.32,165.93c-.86.15-.86,1.23-.9,1.89,0,.26-.19,9.58-.74,13.93-.41,3.08-1.75,9.88-9.32,9.88s-9.59-5.94-10.1-9.95c-.31-2.15-.41-8.69-.41-12.08,0-1.07-.07-1.78-.07-1.78-.04-.82-.04-1.78-.74-1.89-1.71-.3-1.93-.33-1.93-.59,0-.45.26-.49.74-.45,1.12.08,2.64.15,3.53.15s2.11-.07,3.22-.15c.5-.04.75,0,.75.45,0,.26-.34.37-1.71.59-.78.15-.93.97-.89,1.89,0,0,.11,8.55.33,12.74.38,6.54,3.17,9.92,7.29,9.92,5.08,0,7.42-4.17,7.8-9.62.3-4.31.3-8.25.3-12.22v-.82c0-.82-.04-1.78-.75-1.89-1.71-.3-1.93-.33-1.93-.59,0-.45.26-.49.75-.45,1.11.08,2.26.15,3.16.15s1.49-.07,2.6-.15c.48-.04.74,0,.74.45,0,.26-.33.37-1.71.6"/>
  <path class="cls-3" d="M258.58,170.91c-1.59.08-1.59.37-1.59,1.79v18.28l-1.71.37-13.07-17.68v17.27l-1.53.45v-18.69c0-1.42,0-1.71-1.6-1.79-.78-.04-.85-.19-.85-.44,0-.34.15-.59.56-.56,1.25.15,3.09.22,4.08.3l12.56,17.2v-14.71c0-1.42,0-1.71-1.6-1.79-.74-.04-.89-.15-.89-.44,0-.37.22-.56.56-.56.51,0,2.23.3,2.86.3.59,0,2.08-.3,2.56-.3.34,0,.56.19.56.56,0,.3-.15.41-.9.45"/>
  <path class="cls-3" d="M268.84,171.21c-.66.11-.66.86-.66,1.46v18.39l-2.83.22v-18.61c0-.63-.04-1.35-.59-1.46-1.19-.18-1.56-.22-1.56-.59,0-.34.15-.52.63-.49.9.08,2.31.15,3.02.15s1.9-.07,2.79-.15c.48-.03.63.15.63.49,0,.33-.47.45-1.41.59"/>
  <path class="cls-3" d="M293.14,171.07c-.68.11-1.05.67-1.3,1.29l-7.43,18.69-1.98.22-7.46-18.54c-.19-.41-.34-1.04-.59-1.42-.15-.25-.38-.37-.86-.41-.74-.04-.89-.15-.89-.44,0-.34.22-.59.59-.56.89.11,2.37.15,3.15.22.82.08,1.04.67,1.27,1.3l6.39,16.91,6.35-16.02c.19-.44-.11-1.04-.63-1.11-1.41-.22-1.6-.44-1.6-.63,0-.3.11-.48.63-.45.89.08,1.82.15,2.52.15s1.29-.07,2.19-.15c.52-.03.63.15.63.45,0,.21-.22.33-1,.48"/>
  <path class="cls-3" d="M309.08,190.5c-.03.85-.29.93-1.04.89-2.86-.11-5.72-.41-8.59-.22l-2.22.15v-18.65c0-1.42-.04-1.72-1.65-1.79-.73-.04-.85-.15-.85-.44,0-.33.19-.52.57-.52.4,0,.89.11,1.3.19.6.11,1.63.18,2.42.18,2.68,0,5.31-.07,7.98-.18.75-.04,1,0,1.04.85.04.97.07,1.94.07,2.68,0,.56-.12.63-.4.63-.64,0-.49-2.27-1.12-2.67-.48-.3-1.85-.41-2.16-.41h-3.78c-.56,0-.59.11-.59.33v8.66h3.96c.49,0,1.53-.04,1.64-.67.26-1.37.37-1.63.71-1.63.41,0,.45.26.41.63-.07.85-.15,1.48-.15,2.16s.08,1.33.15,2.19c.04.37,0,.64-.41.64-.33,0-.44-.27-.71-1.64-.11-.63-1.01-.71-1.64-.71h-3.96v7.58c0,1.18.03,1.34.81,1.45.71.12,1.34.19,2.38.19.67,0,3.89-.04,4.34-.34.64-.4.48-2.78,1.15-2.78.31,0,.41.07.41.63,0,.74-.03,1.67-.07,2.64"/>
  <path class="cls-3" d="M329.76,191.72c-1.35,0-2.35-.48-3.13-1.6l-1.31-1.9-4.19-6.39c-.63.14-.85.14-1.56.14h-.78v9.03l-2.83.33v-18.65c0-1.38-.04-1.71-1.63-1.78-.74-.04-.86-.19-.86-.44,0-.37.22-.56.56-.56.4,0,.89.11,1.31.19.59.11,2.3.18,3.08.18,1.34,0,2.71-.15,4.04-.15,2.98,0,5.76,1.72,5.76,4.87,0,3.46-2.82,5.57-4.46,6.17,4.76,7.09,3.71,5.53,5.55,8.32.26.41.81,1.01,1.26,1.41.26.22.51.26.51.56,0,.25-.81.25-1.34.25M320.85,171.1h-1.08c-.74,0-.97.36-.97.89v8.96c.44.03.67.07,1.26.07,4.64,0,5.16-3.16,5.16-5.5,0-2.75-.89-4.42-4.38-4.42"/>
  <path class="cls-3" d="M340.06,191.53c-1.38,0-3.72-.41-5.46-1.59l.56-1.3c1.3,1.12,3.67,1.86,4.9,1.86,2.83,0,5.02-1.42,5.02-4.2,0-1.48-1.3-2.34-2.45-3.01-1.86-1.08-3.86-1.82-5.46-3.31-1.23-1.11-2.19-2.44-2.19-4.83,0-3.12,2.93-5.24,6.51-5.24,1.18,0,2.67.22,4.34.56.08,1.3.08,2.45.08,3.34,0,.41,0,.64-.37.64s-.48-.22-.71-1.6c-.18-1-1.26-1.82-3.52-1.82-2.46,0-4.57,1.15-4.57,3.79,0,.82.48,1.3,1.08,1.86.93.89,2.45,1.52,3.6,2.08,1.42.66,2.86,1.41,3.95,2.52.96,1.01,1.59,2.46,1.59,4.24,0,3.83-3.16,6.02-6.88,6.02"/>
  <path class="cls-3" d="M356.62,171.21c-.66.11-.66.86-.66,1.46v18.39l-2.84.22v-18.61c0-.63-.03-1.35-.59-1.46-1.18-.18-1.56-.22-1.56-.59,0-.34.15-.52.63-.49.89.08,2.3.15,3.01.15s1.9-.07,2.8-.15c.48-.03.62.15.62.49,0,.33-.47.45-1.41.59"/>
  <path class="cls-3" d="M379.45,171.73l-1.19-.23h-6.64v19.55l-2.84.3v-19.84c-1.74-.04-5.23,0-5.23,0-1.55,0-1.75.34-1.89,1.12-.08.37,0,1.63-.56,1.63h-.08c-.37,0-.45-.22-.45-.63,0-.74,0-1.71.04-2.68.04-.85.3-.89,1.04-.85.97.03,1.78.07,3.12.11,3.97.15,8.03.07,12,.07,1.03,0,2.22-.37,2.74-.37.15,0,.41.07.41.37,0,.56-.18.63-.48,1.45"/>
  <path class="cls-1" d="M390.91,168.58h1.05l-4.38-4.38c-.48-.48-.8-.68-1.14-.68-.54,0-1.05.39-1.05,1.1,0,.44.22.68,1.29,1.35l4.22,2.61ZM389.43,173.51l-3.39,8.18h6.51l-3.12-8.18ZM396.6,191.35l-3.49-8.55h-7.65l-3.35,8.21-2.23.3,8.29-19.02c.19-.44.15-.71-.07-1.19l-.52-1.12h2.75c.22,0,.44.15.56.38l8.58,20.62-2.87.37Z"/>
</svg>