<?xml version="1.0" encoding="UTF-8"?>
<svg id="Layer_1" xmlns="http://www.w3.org/2000/svg" viewBox="0 0 600 287.5">
  <defs>
    <style>
      .cls-1 {
        fill: #00647b;
      }
    </style>
  </defs>
  <g id="g65">
    <path id="path177" class="cls-1" d="M154.04,272.72c-4.21-.17-8.88-.53-9.42-.73-.59-.22-1.01-.97-.87-1.53.07-.26.52-.93,1.01-1.48.49-.55,1.15-1.52,1.46-2.16.51-1.03.57-1.33.57-2.68s-.06-1.65-.59-2.72c-1.36-2.77-3.99-4.06-8.26-4.07-6.67,0-12.88,2.58-16.38,6.81-.69.83-1.35,1.45-1.61,1.52-.54.14-1.59-.27-4.75-1.85-8.42-4.19-15.57-10.36-21.31-18.39-4.88-6.82-8.43-15.62-9.72-24.08-.71-4.66-1.47-19.49-1.81-35.14-.21-9.68-.08-23.9.21-24.68.21-.55.83-.87,1.67-.87,2.11,0,4.65-1.13,6.33-2.81,2.34-2.34,3.2-5.32,2.42-8.37-.58-2.24-2.57-5.63-4.97-8.47-3.93-4.65-10.29-8.58-16.64-10.29-.98-.26-1.96-.59-2.18-.73-.69-.44-3.05-5.14-4.36-8.71-.3-.8-.81-2.51-1.15-3.78-4.35-16.55.38-33.78,12.67-46.24,1.05-1.06,2.11-2,2.36-2.1.77-.29,1.28-.02,2.24,1.23,2.97,3.82,7.42,6.98,11.95,8.49,3.29,1.09,4.48,1.27,8.58,1.27,4.39,0,5.84-.29,8.67-1.69,3.06-1.52,5.38-3.81,6.79-6.7,1.02-2.1,1.25-3.23,1.24-6.16,0-2.49-.03-2.65-.6-4.2-.33-.88-.63-1.94-.68-2.34-.12-1.06.29-1.3,4.1-2.37,8.37-2.35,17.48-3.96,27.12-4.78,4.5-.39,17.14-.44,21.44-.1,9.12.73,16.86,1.97,24.84,3.98,3.75.94,8.47,2.32,9.1,2.66.68.36.8,1.03.39,2.15-.64,1.77-.91,3.27-.91,5.2,0,5.48,2.98,10.15,8.13,12.68,2.97,1.46,5.36,1.88,9.83,1.72,4.25-.16,7.41-.97,11.02-2.84,2.99-1.55,6.01-4.07,8.23-6.86,1.05-1.32,1.57-1.62,2.32-1.34.59.23,4.65,4.45,6.21,6.45,5.67,7.3,9.01,15.29,10.1,24.14.35,2.81.35,8.15,0,11.08-.71,6.08-2.85,12.66-5.74,17.67q-.88,1.52-1.95,1.84c-3.45,1.02-5.31,1.71-7.35,2.71-5.46,2.66-9.82,6.4-12.87,11.04-1.26,1.91-2.4,4.24-2.71,5.54-.27,1.13-.25,3.07.05,4.19,1,3.77,4.95,6.84,8.81,6.85.53,0,.89.13,1.25.43l.5.43.06,12.3c.08,18.61-.72,40.12-1.77,47.31-2.42,16.57-12.69,31.86-27.33,40.67-1.85,1.11-6.26,3.31-7.53,3.76-.93.32-1.49.02-2.55-1.37-2.42-3.2-7.4-5.81-12.62-6.6-1.97-.3-5.24-.34-6.63-.08-1.5.28-3.4,1.3-4.32,2.32-1.17,1.3-1.6,2.32-1.69,4.05-.11,1.87.27,3.12,1.38,4.58,1.22,1.6,1.29,1.78,1.06,2.43-.11.31-.34.64-.5.73-.38.2-4.52.65-8.23.89-4.16.27-10.2.35-14.12.19h0ZM167.44,269.68c4.87-.33,5.22-.38,5.11-.69-.05-.16-.31-.89-.57-1.63-.61-1.74-.65-4.13-.09-5.91,1.03-3.28,3.98-5.86,7.65-6.67,1.87-.42,5.89-.38,8.55.07,5.12.88,9.73,3.15,12.87,6.37l1.27,1.3,2.57-1.3c5.27-2.66,9.28-5.52,13.53-9.66,8.84-8.61,14.42-19.69,16.1-31.97.11-.77.35-4.11.54-7.42.82-14.11,1.08-22.84,1.08-37.21v-11.36s-1.51-.37-1.51-.37c-4.6-1.14-8.01-4.42-9.12-8.78-.41-1.62-.38-4.24.09-5.88.89-3.16,3.52-7.38,6.7-10.74,4.27-4.51,10.95-8.37,17.37-10.02.72-.19.78-.26,1.75-2.15,2.29-4.47,3.64-8.63,4.5-13.85.25-1.52.33-2.96.33-6.34,0-4.83-.2-6.7-1.18-10.69-1.83-7.48-5.92-14.93-11.29-20.52l-1.42-1.48-1.91,1.91c-2.4,2.4-4.64,4.02-7.61,5.49-2.56,1.27-4.25,1.86-6.96,2.45-1.55.34-2.36.39-5.91.4-3.21,0-4.4-.06-5.45-.29-5.77-1.29-10.14-4.6-12.6-9.53-1.34-2.68-1.75-4.47-1.73-7.5,0-1.66.11-2.72.36-3.71.19-.76.3-1.42.23-1.45-.2-.12-4.54-1.32-6.72-1.87-21.91-5.5-44.82-5.69-66.86-.54-3.07.72-6.64,1.69-6.8,1.84-.05.05.04.47.2.94.8,2.46.85,6.81.12,9.35-1.76,6.1-6.51,10.57-13.04,12.28-1.41.37-2.27.46-4.96.54-3.71.11-5.74-.09-8.75-.85-4.88-1.23-9.27-3.79-13.04-7.61l-1.82-1.84-1.25,1.29c-5,5.14-8.99,12.02-11.02,18.99-.65,2.24-1.29,5.53-1.53,7.91-.3,2.89-.12,8.81.35,11.55.84,4.9,2.49,9.74,4.71,13.8.64,1.18.77,1.31,1.45,1.48,2.96.75,7.39,2.65,10.4,4.46,6.09,3.68,11.41,9.86,13.45,15.63.59,1.68.75,4.67.33,6.35-1.15,4.6-4.88,8.12-9.62,9.1l-1.02.21-.05,6.11c-.11,13.53.19,26.11.94,39.97.52,9.62.81,11.99,2.06,16.76,1.83,7,5.46,14.22,10.08,20.05,1.76,2.23,6.45,6.94,8.59,8.64,3.12,2.48,7.07,4.96,10.43,6.55l1.77.84,1.45-1.45c2.94-2.94,6.46-4.78,11.37-5.95,1.51-.36,2.52-.46,5.19-.54,2.98-.09,3.46-.06,4.82.28,2.21.56,3.62,1.33,5.09,2.79,1.9,1.9,2.77,3.95,2.77,6.52,0,1.59-.28,2.73-1.04,4.23l-.56,1.1,1.47.11c.81.06,1.83.13,2.27.16,2.02.14,13.22.09,15.55-.06h0ZM154.13,250.73c-19.96-1.64-36.82-12.39-42.67-27.23-.81-2.04-1.41-4.45-1.98-7.95-1.13-6.84-1.37-10.45-1.45-21.17-.09-12.64-.53-18.77-1.98-27.52-1.1-6.61-3.05-14.49-4.71-18.99-1.67-4.53-3.59-13.17-4.38-19.78-.83-6.91-.84-15.25,0-19.27.63-3.04,2.21-6.79,4.07-9.63,7.98-12.2,25.8-21.24,46.59-23.61,8.42-.96,19.69-.82,27.61.35,19.87,2.94,36.2,11.61,43.82,23.26,1.86,2.84,3.44,6.59,4.07,9.63.83,4.02.83,12.36,0,19.27-.8,6.61-2.71,15.25-4.38,19.78-1.66,4.5-3.61,12.38-4.71,18.99-1.45,8.75-1.9,14.98-1.98,27.61-.07,10.6-.32,14.24-1.45,21.08-.82,4.94-1.66,7.69-3.43,11.14-2.7,5.27-7.39,10.44-12.98,14.31-8.01,5.55-17.8,8.88-28.59,9.75-2.63.21-8.81.2-11.45-.01h0ZM168.4,247.54c10.32-1.34,19.56-5.12,26.83-10.97,1.91-1.54,5.13-4.86,6.51-6.72,3.78-5.11,5.31-9.29,6.43-17.66.76-5.63,1.12-12.59.95-18.35-.15-5.25.35-14.79,1.13-21.26.94-7.85,2.85-16.81,4.99-23.47.45-1.41.8-2.59.77-2.62-.12-.12-8.52-1.87-11.94-2.49-14.41-2.62-27.34-3.73-43.06-3.73-18.04.01-33.67,1.37-47.99,4.17-3,.59-8.84,1.91-8.96,2.03-.04.04.3,1.22.76,2.63,2.15,6.66,4.06,15.62,4.99,23.47.77,6.41,1.28,16.15,1.13,21.26-.17,5.66.2,12.76.95,18.35.73,5.42,1.43,8.28,2.79,11.47,2.32,5.43,7.2,11.07,13.1,15.11,7.5,5.13,16.98,8.32,27.16,9.13,3.15.25,10.26.06,13.47-.35h0ZM157.43,242.24c-3.7-.97-6.68-3.9-7.79-7.67-.43-1.45-.43-4.27,0-5.72,1.12-3.81,4.11-6.72,7.87-7.68,1.25-.32,3.61-.35,4.96-.08.52.11,1.63.52,2.47.92,1.21.58,1.79,1,2.86,2.08,2.29,2.32,3.36,5.12,3.15,8.24-.19,2.86-1.19,5.04-3.24,7.08-1.4,1.39-3.1,2.35-4.99,2.83-1.33.34-3.97.33-5.28-.01h0ZM162.17,239.39c3.81-.99,6.49-5.06,5.83-8.86-1.13-6.46-8.79-9-13.43-4.44-3.15,3.09-3.15,8.18,0,11.26,2.08,2.03,4.82,2.77,7.61,2.05h0ZM129.47,224.72c-2-.42-3.56-1.11-5.05-2.23-2.68-2.03-4.33-5.77-4.08-9.25.19-2.66,1.16-4.82,3.04-6.78,2.12-2.21,4.64-3.28,7.79-3.29,1.63,0,2.08.06,3.4.52,4.58,1.59,7.4,5.54,7.39,10.34,0,1.19-.11,2.14-.32,2.86-1.14,3.81-4.05,6.61-7.9,7.6-1.26.32-3.31.44-4.27.24ZM133.88,221.45c6.57-2.5,7.01-11.5.71-14.62-1.32-.65-1.39-.66-3.41-.66s-2.13.03-3.26.57c-4.23,2-5.94,6.99-3.77,11,1.03,1.91,3.32,3.62,5.41,4.06,1.14.24,3.21.07,4.32-.35ZM186.65,224.57c-3.81-.83-6.84-3.71-8.1-7.67-.45-1.42-.4-4.52.09-6.09,1.43-4.55,5.54-7.62,10.24-7.64,2.04-.01,3.49.33,5.25,1.25,1.47.76,3.54,2.72,4.26,4.02,1.62,2.94,1.92,6.16.86,9.19-1.78,5.07-7.3,8.1-12.6,6.94ZM190.83,221.7c2.36-.56,4.21-2.07,5.34-4.36.64-1.3.66-1.38.66-3.4s-.03-2.13-.58-3.28c-.77-1.62-2.31-3.16-3.93-3.93-1.15-.54-1.33-.58-3.27-.58s-2.12.03-3.27.57c-3.25,1.54-5.18,5.04-4.63,8.38.43,2.57,2.16,4.93,4.38,5.97,1.89.89,3.37,1.06,5.29.61ZM126.52,187.22c-2.51-.69-4.74-2.27-6.17-4.39-1.28-1.89-1.71-3.2-1.82-5.62-.15-3.42.7-5.68,3.07-8.06,2.25-2.27,4.61-3.28,7.7-3.28,4.92,0,9.43,3.55,10.55,8.33.39,1.67.27,4.38-.27,5.97-1.07,3.13-3.61,5.71-6.67,6.8-1.47.52-4.92.66-6.38.26h0ZM132.64,183.87c3.54-1.75,5.29-5.45,4.33-9.14-.72-2.76-2.95-5-5.7-5.71-2.71-.71-5.35,0-7.43,1.98-3.24,3.09-3.33,8.15-.18,11.29,1.7,1.7,3.46,2.38,5.95,2.29,1.58-.06,1.87-.12,3.04-.7ZM188.17,187.22c-3.89-1.06-6.81-4.04-7.79-7.94-.4-1.6-.26-4.66.28-6.21.87-2.48,2.81-4.7,5.17-5.93,1.95-1.01,3.42-1.33,5.64-1.22,2.95.15,5.29,1.22,7.3,3.35,5.34,5.66,3.2,14.8-4.14,17.64-1,.39-1.56.47-3.34.52-1.52.04-2.43-.02-3.13-.21h0ZM194.13,183.95c4.99-2.34,6.29-8.58,2.62-12.59-2.53-2.75-6.41-3.4-9.69-1.62-1.24.67-2.74,2.33-3.4,3.75-.97,2.07-.91,4.64.16,6.76.96,1.91,2.52,3.27,4.63,4.01.87.31,1.37.37,2.78.31,1.47-.06,1.89-.15,2.91-.62h0ZM158.37,165.49c-2.2-.37-4-1.27-5.65-2.83-3.18-3-4.24-7.43-2.78-11.6,1.06-3.03,3.85-5.69,6.96-6.66,6.06-1.88,12.55,1.93,13.85,8.15,1.56,7.44-4.89,14.18-12.37,12.93h0ZM162.7,162.29c3.58-1.22,5.9-5.04,5.28-8.71-.58-3.45-3.22-6.09-6.67-6.67-2.46-.41-5.05.48-6.83,2.35-2.39,2.51-2.94,5.95-1.44,9.02,1.74,3.55,5.91,5.28,9.65,4h0ZM111.24,141.84c9.57-1.95,20.31-3.29,32.16-4.02,1.57-.1,6.31-.27,10.52-.39,20.55-.57,40.05,1.21,58.99,5.38,2.16.48,3.99.81,4.07.74.21-.2,1.51-5.54,2.1-8.59,1.3-6.81,1.7-10.98,1.68-17.69-.01-5.95-.18-7.35-1.25-10.53-1.27-3.81-3.49-7.3-6.86-10.8-5.59-5.8-13.14-10.29-22.79-13.57-6.21-2.11-12.77-3.46-20.72-4.26-3.13-.32-15.1-.32-18.23,0-7.95.8-14.51,2.15-20.72,4.26-9.67,3.28-17.15,7.74-22.79,13.58-3.36,3.48-5.59,6.98-6.86,10.79-1.07,3.18-1.23,4.59-1.25,10.53-.02,6.58.37,10.74,1.6,17.33.45,2.42,1.73,7.84,2.03,8.64l.16.42,2.56-.6c1.41-.33,3.93-.88,5.6-1.22h0ZM148.71,134.72c-.21-.23-.39-.63-.39-.9s2.1-5.71,4.67-12.1,4.62-11.67,4.56-11.73c-.15-.15-4.36.51-8.34,1.31-14.15,2.82-26.89,7.83-38.06,14.96-2.45,1.56-3.1,1.74-3.79,1.05-.84-.84-.73-1.05,4.29-8.38,2.57-3.75,4.68-6.9,4.68-6.99s-2.13-2.24-4.74-4.77c-4.57-4.44-4.74-4.62-4.74-5.28,0-1.13.43-1.33,3.35-1.57,6.34-.53,14.09-.06,24.8,1.51,5.19.76,13.66,2.3,18.74,3.39,2.05.44,3.76.78,3.79.74.04-.04-1.98-5.19-4.49-11.45-2.85-7.13-4.55-11.61-4.55-11.99,0-.69.65-1.35,1.34-1.35.22,0,2.56,1.34,5.2,2.98,2.64,1.64,4.89,2.98,4.99,2.98s2.34-1.34,4.99-2.98c3.29-2.04,4.97-2.98,5.32-2.98.63,0,1.39.71,1.39,1.31,0,.24-2.08,5.61-4.63,11.94-2.54,6.32-4.6,11.52-4.58,11.55.03.03,1.73-.3,3.78-.74,11.71-2.51,23.39-4.29,32.32-4.94,5.16-.37,13.07-.11,13.99.47.63.4.81,1.05.47,1.73-.16.31-2.33,2.53-4.83,4.94-2.5,2.4-4.54,4.43-4.54,4.49s2.13,3.24,4.74,7.05c2.8,4.1,4.74,7.09,4.74,7.33,0,.52-.67,1.28-1.25,1.41-.32.07-.73-.07-1.43-.5-4.09-2.52-6.32-3.83-8.49-5-8.36-4.49-17.97-8-28.32-10.33-3.65-.82-11.01-2.08-11.18-1.91-.06.06,1.98,5.37,4.55,11.78,2.57,6.42,4.67,11.84,4.67,12.05,0,.21-.17.59-.37.85-.7.89-1.12.73-6.41-2.4-2.67-1.58-4.95-2.84-5.07-2.79s-2.34,1.34-4.94,2.87c-5.06,2.99-5.5,3.16-6.23,2.38h0ZM156.31,128.17c1.83-1.08,3.5-1.97,3.71-1.97s1.89.89,3.73,1.98c1.85,1.09,3.39,1.95,3.43,1.91.04-.04-1.55-4.11-3.52-9.04-1.98-4.94-3.61-8.95-3.64-8.92-.04.04-6.72,16.59-7.17,17.74-.06.15-.05.27.01.27s1.61-.88,3.45-1.97h0ZM116.47,119.78c9.23-4.97,20.57-8.99,31.82-11.25,1.5-.3,2.91-.55,3.12-.55,2.62,0-12.29-2.75-20.77-3.83-7.27-.92-15.82-1.44-18.11-1.1l-.86.13,4.03,3.93c3.75,3.65,4.03,3.98,4.03,4.56,0,.64-.17.91-4.78,7.6-.73,1.06-1.28,1.92-1.22,1.92s1.29-.64,2.74-1.42h0ZM206.28,120.98c-.07-.12-.99-1.47-2.03-2.99-3.88-5.66-3.93-5.74-3.93-6.35,0-.53.38-.96,4.03-4.49,3.6-3.49,3.99-3.91,3.62-4.02-.65-.18-5.88-.17-8.72.03-5.64.39-13.24,1.36-20.25,2.58-5.38.94-10.49,1.94-10.49,2.06,0,.06,1.02.3,2.28.52,5.17.95,13.29,3.16,18.36,5.02,5.15,1.88,11.82,4.89,15.55,7.02,1.51.86,1.8.98,1.58.62h0ZM163.7,95.1c2.35-5.83,3.43-8.73,3.24-8.66-.16.06-1.66.97-3.34,2.01-2.11,1.32-3.22,1.9-3.59,1.9-.37,0-1.52-.61-3.74-1.99-1.76-1.1-3.23-1.96-3.27-1.93-.04.04,1.52,4.02,3.45,8.85s3.56,8.74,3.61,8.69c.05-.05,1.69-4.04,3.63-8.87h0ZM291.17,208.3c-.88-.15-2.21-.41-2.95-.58l-1.34-.31-.05-1.83c-.03-1.01,0-1.83.07-1.83s.53.23,1.03.52c3.61,2.06,7.83,2.7,10.18,1.55,1.84-.9,2.62-2.34,2.61-4.83,0-2.96-1.25-4.37-6.45-7.33-1.51-.86-3.34-2.02-4.07-2.57-2.32-1.77-3.53-3.87-3.71-6.46-.3-4.23,2.01-7.27,6.33-8.34,1.61-.4,5.74-.39,8.19.01,2.65.44,2.41.23,2.41,2.16v1.67l-1.38-.6c-2.16-.93-4.17-1.39-6.12-1.41-1.33-.01-1.83.06-2.32.32-1.67.89-2.23,1.93-2.23,4.13,0,1.42.05,1.7.48,2.42.88,1.49,2.26,2.56,5.86,4.55,5.94,3.28,7.87,5.68,7.86,9.8,0,4.59-2.29,7.54-6.73,8.71-1.86.49-5.45.6-7.65.24h0ZM318.87,208.32c-3.31-.66-5.2-1.98-6.36-4.46-1.06-2.26-1.09-2.64-1.21-13.87-.13-11.73-.02-11.02-1.65-11.51-.5-.15-1.31-.32-1.79-.39-.81-.11-.87-.15-.87-.63,0-.28.09-.51.2-.51.28,0,7.81-.88,8.41-.98l.48-.08.07,12.19c.06,10.34.12,12.37.36,13.37.76,3.19,2.48,4.75,5.45,4.94,1.45.09,3.2-.19,4.16-.68.94-.48,2.04-1.77,2.46-2.89.68-1.81.75-3.31.75-15.08v-11.33h3.06l-.07,12.19c-.06,10.76-.1,12.33-.37,13.32-.9,3.37-2.78,5.33-5.93,6.19-1.5.41-5.54.52-7.15.2h0ZM436.8,208.31c-2.51-.46-4.19-1.34-5.69-2.95-2.43-2.63-3.51-6.64-3.51-13.04,0-6.66,1.05-10.59,3.54-13.25,2.06-2.2,4.43-3.05,8.52-3.08,2.81-.01,4.05.23,5.99,1.17,4.27,2.07,6.36,7.9,6.02,16.76-.26,6.69-1.81,10.64-5.06,12.88-2.22,1.53-6.3,2.15-9.8,1.51h0ZM442.68,205.74c3.08-1.52,4.21-5.04,4.21-13.18,0-7.29-.78-10.69-2.96-12.87-1.21-1.21-2.85-1.77-4.75-1.61-3.76.31-5.9,3.17-6.58,8.75-.25,2.03-.25,8.59,0,10.62.38,3.1,1.23,5.45,2.51,6.9,1.37,1.56,2.73,2.11,4.93,2.03,1.22-.05,1.65-.15,2.64-.64h0ZM340.76,193.92c0-15.53.04-15.02-1.09-15.7-.32-.19-1.13-.45-1.8-.57-1.17-.21-1.22-.24-1.22-.73v-.51h7.28c4.12,0,7.79.08,8.44.19,2.57.41,4.98,2.08,5.95,4.13.68,1.44.89,2.51.89,4.53,0,4.61-1.76,7.14-5.73,8.24-.69.19-2.14.31-4.46.38l-3.44.09v14.07h-4.82v-14.12h0ZM351.21,191.27c1.15-.52,2.12-1.47,2.57-2.52,1.2-2.79.82-7.22-.74-8.73-1.08-1.04-2.11-1.37-4.37-1.38-1.96,0-2.02,0-2.5.49l-.5.5-.05,6.09-.05,6.09,2.38-.07c2-.06,2.52-.13,3.27-.47ZM365.02,193.79c-.05-13.38-.07-14.29-.38-14.84-.38-.69-1.14-1.06-2.76-1.34-1.06-.18-1.12-.22-1.12-.69v-.5h21.04l.11.67c.06.37.11,1.94.11,3.48v2.81s-.52,0-.52,0c-.49,0-.53-.05-.65-.94-.24-1.77-.82-2.7-2.14-3.41-.66-.36-.97-.38-4.35-.38h-3.63l-.43.5-.43.5v10.91l3.26-.07c3.57-.07,3.96-.17,4.83-1.21.25-.3.55-.98.68-1.53.21-.95.24-.98.82-.98h.6v9.83h-.63c-.6,0-.63-.02-.63-.67,0-1.28-.91-2.65-2.02-3.07-.29-.11-1.87-.19-3.71-.19h-3.2v5.98c0,6.32.04,6.69.83,7.05.56.25,7.58.27,8.49.01,1.21-.34,2.29-2.16,2.29-3.87,0-.56.03-.59.65-.59h.65l-.12,2.55c-.06,1.4-.12,2.93-.12,3.39v.85h-17.5l-.05-14.25h0ZM389.5,193.79c-.05-13.38-.07-14.29-.38-14.84-.38-.69-1.14-1.06-2.76-1.34-1.06-.18-1.12-.22-1.12-.69v-.5h6.39c3.51,0,7.11.08,8,.18,4.22.47,7.01,2.08,8.28,4.78.45.96.48,1.18.48,3.52s-.03,2.57-.48,3.52c-.93,1.99-2.76,3.4-5.07,3.92-.54.12-.98.26-.98.31,0,.09,5.81,11.22,7.28,13.93l.8,1.48-2.54-.05-2.54-.05-3.87-7.24-3.87-7.24-1.38-.05-1.38-.05v14.67h-4.81l-.05-14.25h0ZM400.21,190.76c2.74-1.08,4-3.7,3.46-7.18-.25-1.61-.85-2.82-1.81-3.65-1-.86-2.07-1.2-4.1-1.31-1.41-.07-1.8-.04-2.32.24-1.05.55-1.07.66-1.07,6.82v5.6s2.45-.08,2.45-.08c1.92-.06,2.66-.16,3.39-.45h0ZM415.95,194.06c-.05-13.12-.07-14.02-.38-14.58-.38-.7-1.06-1.02-2.79-1.32-1.21-.21-1.26-.24-1.26-.72,0-.27.09-.5.2-.5.28,0,7.82-.88,8.42-.98l.49-.08v32.15h-4.63l-.05-13.98ZM458.51,193.88c0-13.12-.02-14.21-.31-14.79-.38-.77-1.48-1.36-2.83-1.53-.93-.12-.97-.14-.97-.65v-.53l7.46.08c5.92.07,7.7.14,8.63.36,4.68,1.11,6.84,3.39,7.09,7.45.26,4.24-1.72,7.06-5.63,8.05-.52.13-.94.31-.94.39s1.77,3.52,3.93,7.64c2.16,4.11,3.93,7.53,3.93,7.58s-1.11.1-2.46.1h-2.46s-3.91-7.33-3.91-7.33l-3.91-7.32h-2.82v14.65h-4.82v-14.16h0ZM468.19,191.04c1.92-.41,3.26-1.4,4.09-3.02.32-.63.43-1.19.49-2.56.13-3-.63-4.86-2.42-5.94-1.45-.87-4.01-1.23-5.63-.78-1.25.35-1.29.56-1.35,6.91l-.05,5.58h1.97c1.08,0,2.39-.09,2.91-.2h0ZM484.56,193.88c-.05-12.63-.08-14.23-.34-14.8-.35-.77-1.16-1.2-2.77-1.47-1.08-.18-1.14-.22-1.14-.69v-.5h21.03l.11,1.47c.06.81.12,2.38.12,3.48v2.01s-.51,0-.51,0c-.53,0-.73-.32-.73-1.16-.01-1.28-.81-2.53-2.03-3.17-.66-.35-1.07-.4-3.94-.46-2-.04-3.45,0-3.85.13-1.13.34-1.16.51-1.16,6.43v5.29h3.31c2.78,0,3.4-.05,3.87-.31.86-.47,1.45-1.29,1.69-2.37.21-.95.24-.98.82-.98h.6v9.83h-.63c-.56,0-.63-.05-.63-.49,0-1.37-.82-2.74-1.91-3.2-.42-.18-1.5-.24-3.89-.24h-3.31v5.23c0,5.39.15,7.15.63,7.63.42.42,7.88.51,8.94.1,1.29-.49,1.93-1.51,2.16-3.39l.12-1h1.26l-.12,1.74c-.06.96-.12,2.49-.12,3.39v1.65h-17.5l-.05-14.16h0ZM327.89,154.87c-1.94-.42-3.92-1.51-5.14-2.85-2.51-2.74-3.51-6.48-3.51-13.13,0-7.06,1.13-10.94,3.94-13.58,2.03-1.9,4.39-2.69,8.08-2.68,3.95,0,6.18.77,8.25,2.84,2.66,2.65,3.73,6.54,3.73,13.51,0,5.33-.51,8.17-2,11.03-1.29,2.5-3.58,4.2-6.52,4.85-1.59.36-5.21.36-6.84,0h0ZM333.34,152.81c2.58-.69,4.28-3.37,4.93-7.76.3-2.06.31-9.99,0-12.01-.7-4.68-2.22-7.21-4.89-8.08-.36-.12-1.3-.22-2.07-.21-5.13.01-7.36,4.28-7.36,14.05,0,8.33,1.65,12.64,5.34,13.96.79.28,3.07.31,4.04.05h0ZM290.87,140.54c-.05-12.67-.08-14.12-.35-14.61-.49-.89-.92-1.15-2.54-1.55-1.49-.37-1.54-.4-1.54-.89v-.51h9.23l6.86,12.61c3.77,6.94,6.96,12.75,7.08,12.91.18.24.23-2.22.23-12.61v-12.91h2.69v31.63h-4.26l-7.17-13.18c-3.95-7.25-7.25-13.25-7.34-13.35-.1-.1-.17,4.94-.17,13.18v13.35h-2.67l-.05-14.07ZM350.19,140.36c-.05-13.76-.06-14.27-.4-14.83-.39-.65-1.1-.99-2.75-1.31-1.05-.21-1.12-.25-1.06-.69l.05-.47,4.74-.05c5.49-.06,10.31.18,11.97.6,2.74.69,4.77,2.13,5.71,4.06.94,1.93,1.06,4.85.29,7.05-.67,1.9-2.39,3.42-4.57,4.04-.64.18-1.26.36-1.39.39-.17.05-.1.32.25,1.01.65,1.28,6.02,11.53,6.89,13.14l.7,1.3-2.54-.05-2.54-.05-3.87-7.24-3.87-7.24-1.37-.05-1.37-.05v14.67h-4.81l-.05-14.25ZM360.73,137.42c.93-.3,1.4-.59,2.11-1.3,1.24-1.24,1.6-2.28,1.57-4.65-.04-3.8-1.58-5.68-5.07-6.17-2.26-.32-3.74.08-4.1,1.09-.13.37-.2,2.51-.2,6.11v5.54l2.24-.12c1.55-.08,2.61-.24,3.44-.51h0ZM376.28,140.54c-.05-13.26-.07-14.11-.38-14.73-.39-.77-1.25-1.24-2.94-1.58-1.06-.21-1.12-.25-1.07-.69l.05-.46h9.97l4.38,13.01c2.41,7.15,4.44,12.94,4.51,12.86.11-.13,6.46-19.26,7.98-24.04l.61-1.92h5.88v31.63h-4.29v-13.97c0-7.68-.06-13.91-.13-13.84-.07.07-2.19,6.34-4.7,13.92l-4.56,13.79-1.6.05-1.6.05-4.65-13.9-4.65-13.9-.05,13.89-.05,13.89h-2.67l-.05-14.07ZM410.44,154.46c0-.09,2.01-6.01,4.46-13.16s4.58-13.49,4.74-14.11c.45-1.79-.1-2.59-2.06-2.97-.99-.2-1.06-.24-1.06-.72v-.51h8.14l3.91,11.48c2.15,6.31,4.57,13.43,5.39,15.81l1.49,4.33h-2.27s-2.27,0-2.27,0l-1.62-4.78-1.62-4.78-5.71-.05-5.71-.05-1.61,4.78-1.61,4.78-1.3.05c-.73.03-1.3-.02-1.3-.12h0ZM426.88,142.77s-1.09-3.03-2.42-6.66-2.46-6.72-2.51-6.87c-.09-.24-.11-.24-.24,0-.15.28-4.65,13.32-4.65,13.49,0,.05,2.21.09,4.91.09s4.91-.02,4.91-.05h0ZM440.78,140.63c-.05-12.8-.08-14.03-.36-14.54-.32-.59-1.17-1.03-2.39-1.23-1.74-.29-1.71-.27-1.65-.78l.05-.47,4.11-.48c2.26-.27,4.33-.49,4.6-.49h.49s0,14.55,0,14.55c0,16.8-.2,15.15,1.9,15.38,1.55.17,6.74-.02,7.59-.27,1.38-.4,2.25-1.6,2.43-3.33.1-.96.1-.96.72-.96.56,0,.61.04.51.4-.06.22-.11,1.71-.11,3.31v2.9h-17.86l-.05-13.98ZM464.9,140.36c-.05-13.06-.08-14.3-.36-14.81-.35-.63-1.11-1-2.79-1.33-1.05-.21-1.12-.25-1.06-.69l.05-.47h21.08l.05,3.44.05,3.44h-.52c-.49,0-.52-.05-.64-.92-.25-1.86-1-2.95-2.41-3.5-.68-.26-1.39-.32-4.12-.32-3.56,0-3.98.09-4.3.92-.09.25-.17,2.81-.17,5.71v5.26h3.17c2.71,0,3.28-.06,3.9-.34.9-.41,1.45-1.15,1.73-2.33.2-.85.24-.9.8-.9h.58v9.85l-.58-.06c-.55-.05-.59-.1-.69-.96-.18-1.51-.75-2.33-1.99-2.85-.51-.21-1.38-.27-3.79-.27h-3.13v5.99c0,6.33.06,6.8.84,7.14.53.23,6.32.32,7.61.11.66-.1,1.43-.35,1.72-.56.68-.49,1.26-1.72,1.39-2.95.1-.98.11-.99.7-.99h.6v2.1c0,1.15-.05,2.64-.12,3.31l-.11,1.21h-17.45l-.05-14.25h0ZM292.16,100.11c-1.37-.17-3.5-.57-4.69-.9l-.67-.18v-3.68l1.86.93c2.44,1.22,4.37,1.75,6.45,1.77,2.56.02,4.07-.72,5-2.42.43-.8.53-1.22.6-2.52.16-3.27-.95-4.63-6.22-7.63-3.24-1.84-4.46-2.71-5.74-4.05-1.55-1.63-2.3-3.46-2.3-5.63,0-3.89,2.18-6.7,6-7.73,2.22-.6,6.45-.54,9.82.14l1.07.22.05,1.65c.03.91,0,1.65-.05,1.65s-.68-.24-1.38-.54c-2.7-1.15-6.14-1.7-7.79-1.25-1.05.29-2.25,1.42-2.61,2.46-.33.96-.35,2.74-.04,3.56.61,1.65,2.14,3.03,5.37,4.82,6.83,3.78,8.68,5.97,8.68,10.28,0,4.58-2.34,7.56-6.87,8.72-1.6.41-4.69.57-6.53.35h0ZM319.85,100.1c-5.61-.72-8.85-4.45-9.92-11.42-.4-2.59-.35-8.03.09-10.61.96-5.64,3.52-8.85,8.04-10.07,1.64-.44,6.05-.44,7.68,0,2.61.71,4.44,2.05,5.35,3.94.29.61.59,1.41.65,1.78l.12.67h-5.21l-.2-.76c-.29-1.09-.77-1.93-1.45-2.57-1.09-1.02-1.67-1.23-3.54-1.23-1.5,0-1.81.06-2.61.48-1.79.94-3.14,3.02-3.81,5.88-.74,3.13-.88,7.83-.34,11.75.96,7.03,4.4,10.61,9.74,10.13,2.21-.2,4.67-1.03,6.19-2.1l.49-.35v2.88l-.62.26c-1.08.45-4.22,1.15-6.03,1.35-1.95.21-2.93.21-4.61,0h0ZM345.62,100.1c-4.33-.56-6.78-2.63-7.84-6.63-.26-.97-.31-2.59-.4-11.58-.08-8.01-.16-10.55-.33-10.85-.33-.58-1.08-.91-2.67-1.17-1.3-.22-1.4-.27-1.45-.7-.05-.43.01-.48.71-.57.95-.13,8.23-.99,8.4-.99.07,0,.15,5.57.19,12.37.07,13.03.07,13.08.89,15,.43,1,1.64,2.2,2.68,2.66.77.34,1.26.41,2.72.42,3.68.02,5.5-1.3,6.42-4.63.32-1.16.35-2.1.42-13.27l.08-12.02h3.03l-.07,11.93q-.08,12.77-1.02,15.28c-.45,1.18-1.81,2.78-2.95,3.45-2.11,1.23-5.53,1.75-8.82,1.32h0ZM374.91,100.12c-3.18-.45-5.76-1.95-7.28-4.23-1.63-2.45-2.36-5.5-2.52-10.51-.41-12.82,3.51-18.16,12.99-17.73,3.42.15,5.64,1.09,7.58,3.19,2.34,2.52,3.49,6.9,3.49,13.22,0,9.35-2.63,14.34-8.3,15.79-1.33.34-4.47.48-5.97.27ZM379.89,97.6c1.1-.47,2.46-1.9,3.07-3.2,1.03-2.21,1.39-4.9,1.39-10.36,0-4.24-.18-6.35-.72-8.46-.66-2.57-1.89-4.34-3.65-5.27-.81-.42-1.09-.47-2.78-.47-1.62,0-2,.06-2.77.44-2.39,1.17-3.84,3.89-4.37,8.21-.24,1.96-.24,8.6,0,10.55.63,5.16,2.39,7.99,5.52,8.88,1.1.31,3.19.16,4.3-.32h0ZM396.33,86.49c0-7.66-.07-13.71-.17-14.32-.26-1.61-.68-1.94-2.95-2.33-1.15-.2-1.26-.25-1.31-.68-.06-.54-.26-.5,4.43-1.03,1.72-.2,3.47-.4,3.89-.46l.76-.1v13.81c.02,7.6.09,14.2.16,14.67.24,1.49.16,1.46,4.98,1.46,3.88,0,4.3-.03,4.94-.36,1.12-.57,1.71-1.46,1.95-2.93.19-1.22.22-1.27.7-1.27h.5v6.79h-17.87v-13.27s0,0,0,0ZM417.94,97.21c.47-1.4,2.37-6.93,4.21-12.28s3.58-10.46,3.87-11.35c1-3.09.67-3.85-1.86-4.37-.91-.19-1.03-.26-1.03-.65v-.43h8.35l2.99,8.8c1.65,4.84,4.07,11.96,5.38,15.81l2.38,7.01h-4.55l-1.62-4.87-1.62-4.87-5.71-.05-5.71-.05-.96,2.91c-.53,1.6-1.28,3.81-1.67,4.92l-.71,2.01h-2.62l.86-2.55ZM433.15,86.4c-.28-.76-1.42-3.86-2.53-6.89-1.19-3.25-2.07-5.41-2.15-5.27-.13.24-4.64,13.33-4.64,13.47,0,.04,2.21.08,4.91.08h4.91l-.51-1.38ZM114.21,52.56c-.09-.23-2.47-6.09-5.3-13.02-2.82-6.93-5.17-12.72-5.22-12.88-.06-.21.18-.38.9-.64l.98-.36.49,1.18c3.49,8.36,9.77,16.37,13.4,17.09.75.15,1.46-.49,2.26-2.02,1.94-3.73,2.57-9.27,2-17.43l-.1-1.38h2.15l.18.67c.1.37.34,1.32.54,2.11.96,3.8,2.93,8.71,4.32,10.73,1.85,2.7,4.17,4.29,5.58,3.83.65-.21,1.65-1.18,2.23-2.16.53-.9,1.22-3.05,1.57-4.91.36-1.92.54-8.15.31-10.61-.11-1.14-.1-1.69.03-1.74.1-.04.58-.09,1.06-.11l.87-.05.61,2.32c1.01,3.83,2.72,8.72,3.84,11,.83,1.69,1.29,2.38,2.17,3.27,1.5,1.53,2.35,1.82,4.83,1.64,2.17-.15,2.56-.38,3.32-1.94.7-1.43.96-3.16.82-5.31-.22-3.36-.79-5.58-2.22-8.66-.41-.88-.87-2.04-1.03-2.58-.54-1.84,0-4.76,1.46-7.83,1.17-2.48,2.32-3.99,3.59-4.74.33-.19,1.64.91,2.47,2.08,1.52,2.14,2.71,5.02,3.14,7.59.3,1.76.06,2.88-1.17,5.57-1.19,2.59-1.78,4.6-2.03,6.84-.39,3.53-.11,5.94.88,7.5.76,1.2,1.1,1.35,3.25,1.49,1.77.11,1.94.09,2.88-.34,2-.92,3.36-2.8,5.05-7.01.95-2.38,2.63-7.72,3.13-9.98l.23-1.04,1,.12c.55.07,1.02.15,1.05.18.03.03-.03,1.41-.14,3.06-.51,7.86,1,14.51,3.66,16.06.93.54,1.19.54,2.39-.02,3.17-1.47,6.08-6.74,8.13-14.68l.59-2.29,1.11-.05,1.11-.05-.14.95c-.08.52-.14,2.96-.14,5.41,0,6.19.57,9.6,2.09,12.47.58,1.1,1.56,2.09,2.06,2.09.8,0,2.59-1.11,4.07-2.53,3.73-3.58,7.26-9.06,9.79-15.19l.27-.66.95.38c.52.21.97.4,1.01.42.03.02-.24.75-.6,1.62s-2.78,6.81-5.38,13.19c-2.6,6.39-4.74,11.63-4.76,11.64-.02.02-1.44-.36-3.16-.85-14.42-4.06-33.12-6.32-47.3-5.72-13.48.57-26.99,2.64-38.28,5.86-1.22.35-2.33.67-2.45.72-.13.05-.3-.1-.39-.33h0ZM119.37,49.31c10.53-2.75,23.11-4.58,35.38-5.13,14.46-.65,33.59,1.62,48.39,5.75.72.2,1.34.33,1.38.3.08-.08,3.83-9.27,3.83-9.39,0-.05-.72.65-1.6,1.55-3.16,3.22-5.87,4.37-7.88,3.33-1.36-.71-2.82-3.1-3.64-6.02-.48-1.69-.99-4.82-1-6.06,0-1.75-.18-1.71-.98.19-1.74,4.1-3.92,6.84-6.58,8.26-.91.48-1.3.59-2.26.59-3.47.02-5.85-3.63-6.75-10.35l-.31-2.32-1.05,2.63c-1.85,4.65-3.51,6.89-5.95,8.05-1.2.57-1.24.58-3.73.55-2.15-.02-2.62-.08-3.23-.39-1.17-.6-2.44-2.28-2.91-3.87-.12-.39-.25-.84-.3-.98-.05-.15-.23.16-.4.71-.62,1.96-1.56,3.31-2.8,4.04-.75.44-.94.46-3.42.49-2.57.03-2.66.01-3.71-.49-.69-.33-1.53-.98-2.35-1.81-1.05-1.06-1.46-1.66-2.34-3.41-.58-1.17-1.34-2.89-1.67-3.82l-.61-1.7-.13.71c-.07.39-.26,1.59-.42,2.65-.52,3.51-1.65,6.28-3.16,7.79-1.12,1.12-1.98,1.51-3.36,1.51-.91,0-1.39-.11-2.2-.5-1.23-.6-2.89-2.08-4.1-3.68-.8-1.06-2.58-4.35-3.18-5.9l-.24-.63-.05.63c-.26,2.99-.52,4.81-.88,6.25-1.29,5.11-3.41,7.66-6.03,7.23-1.78-.29-3.31-1.28-5.69-3.69-.96-.97-1.67-1.58-1.58-1.35.09.22.9,2.21,1.8,4.43.91,2.21,1.72,4.21,1.81,4.44.11.28.26.39.47.34.17-.05,1.72-.45,3.44-.9h0ZM160.46,27.82c.34-1.63,1.07-3.67,2.27-6.32.59-1.3.68-1.69.66-2.68-.04-1.95-1.31-5.34-2.74-7.3-.56-.76-.57-.77-.93-.45-.63.57-2.26,4.15-2.66,5.87-.5,2.1-.41,2.83.63,5.1,1.1,2.39,1.8,4.46,2.08,6.15.12.74.25,1.31.29,1.27.04-.04.21-.78.39-1.65h0ZM153.78,36.09c-.35-.26-.36-.39-.18-2.89.17-2.33-.46-4.55-1.59-5.61-.42-.39-.52-.41-1.26-.22-1.33.34-2.77.25-3.78-.22-1.5-.7-2.18-1.85-2.35-3.96-.16-2.1.67-3.4,2.64-4.11,2.38-.85,4.73.37,6.85,3.55,1.18,1.78,1.78,3.1,2.37,5.21.54,1.94.77,5.21.43,6.23-.29.87-1.01,1.71-1.74,2.01-.73.3-.98.31-1.39,0h0ZM152.99,24.86c-1.29-2.23-3.06-3.89-4.15-3.89-.68,0-1.73.47-1.95.88-.49.91.04,2.88.9,3.32.61.32,1.2.33,2.86.04,1.18-.2,1.31-.19,1.92.16.97.56,1.01.51.42-.51h0ZM165.03,36.08c-1.96-.87-2.43-3.59-1.36-7.85,1.09-4.31,3.34-7.68,6.06-9.04,1.89-.95,4.75,0,5.59,1.84.6,1.32.33,3.55-.59,4.95-.6.91-2.08,1.59-3.43,1.59-.6,0-1.45-.09-1.89-.19-.78-.18-.82-.17-1.36.42-.92,1-1.37,2.45-1.39,4.42,0,.93.05,2.07.14,2.53.13.72.1.88-.22,1.21-.43.43-.78.46-1.54.12ZM167.67,25.34c.61-.31.79-.32,1.92-.13,1.63.28,2.22.27,2.84-.05.8-.41,1.35-2.23.97-3.22-.15-.39-1.36-.99-2-.99-.71,0-2.06.94-2.92,2.04-.8,1.03-1.92,2.88-1.66,2.76.09-.04.47-.23.84-.42h0Z"/>
  </g>
</svg>